<svg xmlns="http://www.w3.org/2000/svg" xmlns:xlink="http://www.w3.org/1999/xlink" width="40" zoomAndPan="magnify" viewBox="0 0 30 30.000001" height="40" preserveAspectRatio="xMidYMid meet" version="1.0"><defs><clipPath id="c89ab04799"><path d="M 1 3 L 29.515625 3 L 29.515625 27 L 1 27 Z M 1 3 " clip-rule="nonzero"/></clipPath><clipPath id="45eec463ad"><path d="M 11.703125 31.683594 L -3.125 13.808594 L 14.75 -1.023438 L 29.578125 16.851562 Z M 11.703125 31.683594 " clip-rule="nonzero"/></clipPath><clipPath id="fb4d094841"><path d="M 11.703125 31.683594 L -3.125 13.808594 L 14.75 -1.023438 L 29.578125 16.851562 Z M 11.703125 31.683594 " clip-rule="nonzero"/></clipPath><clipPath id="292b7a5b67"><path d="M 2 4 L 29 4 L 29 27 L 2 27 Z M 2 4 " clip-rule="nonzero"/></clipPath><clipPath id="1abc0de114"><path d="M 11.703125 31.683594 L -3.125 13.808594 L 14.75 -1.023438 L 29.578125 16.851562 Z M 11.703125 31.683594 " clip-rule="nonzero"/></clipPath><clipPath id="72dca4061d"><path d="M 11.703125 31.683594 L -3.125 13.808594 L 14.75 -1.023438 L 29.578125 16.851562 Z M 11.703125 31.683594 " clip-rule="nonzero"/></clipPath><clipPath id="db23e9072f"><path d="M 2 4 L 29 4 L 29 27 L 2 27 Z M 2 4 " clip-rule="nonzero"/></clipPath><clipPath id="11f323661f"><path d="M 11.796875 30.660156 L -2.105469 13.902344 L 14.65625 0 L 28.558594 16.757812 Z M 11.796875 30.660156 " clip-rule="nonzero"/></clipPath><clipPath id="8d828a8464"><path d="M 11.796875 30.660156 L -2.105469 13.902344 L 14.65625 0 L 28.558594 16.757812 Z M 11.796875 30.660156 " clip-rule="nonzero"/></clipPath><clipPath id="209f67375e"><path d="M 2 4 L 28 4 L 28 26 L 2 26 Z M 2 4 " clip-rule="nonzero"/></clipPath><clipPath id="f2521c5859"><path d="M 11.796875 30.660156 L -2.105469 13.902344 L 14.65625 0 L 28.558594 16.757812 Z M 11.796875 30.660156 " clip-rule="nonzero"/></clipPath><clipPath id="a42199401f"><path d="M 11.796875 30.660156 L -2.105469 13.902344 L 14.65625 0 L 28.558594 16.757812 Z M 11.796875 30.660156 " clip-rule="nonzero"/></clipPath><clipPath id="1c1c0a7ef8"><path d="M 12 7.542969 L 15 7.542969 L 15 11 L 12 11 Z M 12 7.542969 " clip-rule="nonzero"/></clipPath><clipPath id="e132bd5a80"><path d="M 10 7.542969 L 17 7.542969 L 17 13 L 10 13 Z M 10 7.542969 " clip-rule="nonzero"/></clipPath><clipPath id="316ef6d9c9"><path d="M 7.503906 9 L 17 9 L 17 21 L 7.503906 21 Z M 7.503906 9 " clip-rule="nonzero"/></clipPath><clipPath id="90dd93fb9a"><path d="M 7.503906 8 L 19 8 L 19 22 L 7.503906 22 Z M 7.503906 8 " clip-rule="nonzero"/></clipPath><clipPath id="5d348f2857"><path d="M 7.503906 7.542969 L 19.117188 7.542969 L 19.117188 22 L 7.503906 22 Z M 7.503906 7.542969 " clip-rule="nonzero"/></clipPath><clipPath id="20952531a1"><path d="M 7.503906 7.542969 L 19.117188 7.542969 L 19.117188 22 L 7.503906 22 Z M 7.503906 7.542969 " clip-rule="nonzero"/></clipPath><clipPath id="b6f5897afb"><path d="M 7.503906 7.542969 L 19.117188 7.542969 L 19.117188 22 L 7.503906 22 Z M 7.503906 7.542969 " clip-rule="nonzero"/></clipPath><clipPath id="c8343add6b"><path d="M 7.503906 7.542969 L 19.117188 7.542969 L 19.117188 22 L 7.503906 22 Z M 7.503906 7.542969 " clip-rule="nonzero"/></clipPath><clipPath id="507ef40cd8"><path d="M 11 17 L 19 17 L 19 22.785156 L 11 22.785156 Z M 11 17 " clip-rule="nonzero"/></clipPath><clipPath id="d7a82f0b3c"><path d="M 16 22 L 19 22 L 19 22.785156 L 16 22.785156 Z M 16 22 " clip-rule="nonzero"/></clipPath><clipPath id="f2e7786eca"><path d="M 15 20 L 19 20 L 19 22.785156 L 15 22.785156 Z M 15 20 " clip-rule="nonzero"/></clipPath><clipPath id="5f97d31cbb"><path d="M 11 20 L 14 20 L 14 22.785156 L 11 22.785156 Z M 11 20 " clip-rule="nonzero"/></clipPath><clipPath id="ebb5f5dcb5"><path d="M 15 20 L 19 20 L 19 22.785156 L 15 22.785156 Z M 15 20 " clip-rule="nonzero"/></clipPath><clipPath id="1484b8e71f"><path d="M 11 20 L 14 20 L 14 22.785156 L 11 22.785156 Z M 11 20 " clip-rule="nonzero"/></clipPath><clipPath id="dbed303428"><path d="M 16 22 L 19 22 L 19 22.785156 L 16 22.785156 Z M 16 22 " clip-rule="nonzero"/></clipPath><clipPath id="845a0af409"><path d="M 11 20 L 14 20 L 14 22.785156 L 11 22.785156 Z M 11 20 " clip-rule="nonzero"/></clipPath><clipPath id="2f57fb878a"><path d="M 16 13 L 19.117188 13 L 19.117188 18 L 16 18 Z M 16 13 " clip-rule="nonzero"/></clipPath><clipPath id="c121c0b569"><path d="M 7.503906 15 L 12 15 L 12 18 L 7.503906 18 Z M 7.503906 15 " clip-rule="nonzero"/></clipPath><clipPath id="0f949ebd74"><path d="M 7.503906 15 L 10 15 L 10 18 L 7.503906 18 Z M 7.503906 15 " clip-rule="nonzero"/></clipPath></defs><g clip-path="url(#c89ab04799)"><g clip-path="url(#45eec463ad)"><g clip-path="url(#fb4d094841)"><path fill="#000000" d="M 4.289062 22.746094 C 0.195312 17.808594 0.875 10.488281 5.8125 6.394531 C 10.75 2.296875 18.070312 2.980469 22.164062 7.914062 L 29.578125 16.851562 L 20.640625 24.269531 C 15.707031 28.363281 8.382812 27.679688 4.289062 22.746094 Z M 4.289062 22.746094 " fill-opacity="1" fill-rule="evenodd"/></g></g></g><g clip-path="url(#292b7a5b67)"><g clip-path="url(#1abc0de114)"><g clip-path="url(#72dca4061d)"><path fill="#000000" d="M 21.714844 8.289062 L 28.753906 16.777344 L 20.269531 23.816406 C 18 25.699219 15.136719 26.582031 12.203125 26.308594 C 9.269531 26.039062 6.621094 24.636719 4.738281 22.371094 C 2.859375 20.105469 1.972656 17.242188 2.246094 14.308594 C 2.519531 11.375 3.917969 8.722656 6.1875 6.84375 C 8.453125 4.960938 11.316406 4.078125 14.25 4.351562 C 17.183594 4.625 19.832031 6.023438 21.714844 8.289062 Z M 28.601562 16.761719 L 21.628906 8.359375 C 17.785156 3.726562 10.890625 3.082031 6.253906 6.925781 C 1.621094 10.769531 0.980469 17.667969 4.824219 22.300781 C 8.667969 26.933594 15.5625 27.578125 20.199219 23.734375 Z M 28.601562 16.761719 " fill-opacity="1" fill-rule="nonzero"/></g></g></g><g clip-path="url(#db23e9072f)"><g clip-path="url(#11f323661f)"><g clip-path="url(#8d828a8464)"><path fill="#f0ac3e" d="M 4.847656 22.28125 C 1.007812 17.652344 1.648438 10.789062 6.273438 6.953125 C 10.902344 3.113281 17.765625 3.75 21.605469 8.378906 L 28.558594 16.757812 L 20.179688 23.710938 C 15.550781 27.546875 8.6875 26.910156 4.847656 22.28125 Z M 4.847656 22.28125 " fill-opacity="1" fill-rule="evenodd"/></g></g></g><g clip-path="url(#209f67375e)"><g clip-path="url(#f2521c5859)"><g clip-path="url(#a42199401f)"><path fill="#f0ac3e" d="M 21.183594 8.730469 L 27.785156 16.6875 L 19.828125 23.289062 C 17.703125 25.050781 15.015625 25.878906 12.269531 25.625 C 9.519531 25.367188 7.03125 24.054688 5.269531 21.929688 C 3.507812 19.804688 2.675781 17.121094 2.933594 14.371094 C 3.1875 11.621094 4.5 9.136719 6.625 7.375 C 8.75 5.609375 11.4375 4.78125 14.183594 5.035156 C 16.933594 5.292969 19.421875 6.605469 21.183594 8.730469 Z M 27.640625 16.671875 L 21.105469 8.796875 C 17.5 4.453125 11.035156 3.847656 6.691406 7.453125 C 2.347656 11.054688 1.746094 17.523438 5.347656 21.867188 C 8.953125 26.210938 15.417969 26.8125 19.761719 23.207031 Z M 27.640625 16.671875 " fill-opacity="1" fill-rule="nonzero"/></g></g></g><g clip-path="url(#1c1c0a7ef8)"><path fill="#b8bc6c" d="M 12.769531 10.417969 L 14.601562 9.972656 L 14 7.667969 L 13.238281 8.597656 L 12.167969 8.113281 Z M 12.769531 10.417969 " fill-opacity="1" fill-rule="nonzero"/></g><g clip-path="url(#e132bd5a80)"><path stroke-linecap="butt" transform="matrix(0.0195011, 0, 0, 0.0188096, 2.841676, 5.068212)" fill="none" stroke-linejoin="miter" d="M 509.092108 284.416708 L 603.037142 260.741929 L 572.189519 138.214564 L 533.129217 187.640857 L 478.244485 161.889343 Z M 509.092108 284.416708 " stroke="#42240c" stroke-width="6" stroke-opacity="1" stroke-miterlimit="10"/></g><g clip-path="url(#316ef6d9c9)"><path fill="#e47047" d="M 16.484375 18.550781 L 10.464844 20.011719 C 10.300781 20.050781 10.148438 20.03125 10.003906 19.945312 C 9.863281 19.863281 9.769531 19.742188 9.726562 19.585938 L 7.722656 11.902344 C 7.679688 11.746094 7.703125 11.597656 7.789062 11.460938 C 7.875 11.320312 8 11.230469 8.160156 11.191406 L 14.179688 9.730469 C 14.339844 9.691406 14.496094 9.710938 14.636719 9.792969 C 14.78125 9.878906 14.875 9.996094 14.914062 10.152344 L 16.921875 17.839844 C 16.964844 17.996094 16.941406 18.144531 16.855469 18.28125 C 16.769531 18.421875 16.644531 18.511719 16.484375 18.550781 Z M 16.484375 18.550781 " fill-opacity="1" fill-rule="nonzero"/></g><g clip-path="url(#90dd93fb9a)"><path stroke-linecap="butt" transform="matrix(-0.0189102, 0.00459503, -0.00476396, -0.0182397, 23.997813, 22.142212)" fill="none" stroke-linejoin="miter" d="M 326.965163 279.272807 L 645.263449 279.363412 C 653.928868 279.404824 661.250571 282.320155 667.321333 288.561101 C 673.248588 294.551731 676.33763 301.968968 676.444954 310.562494 L 676.298416 731.782697 C 676.40574 740.376223 673.312445 747.73511 667.263507 753.70691 C 661.163835 759.880091 653.78129 762.945975 645.310112 762.953497 L 327.011825 762.862892 C 318.540647 762.870413 311.024704 759.906149 305.097449 753.915518 C 299.026687 747.674573 295.886911 740.458718 295.973828 731.914125 L 295.976858 310.443607 C 295.869535 301.85008 298.962829 294.491193 305.011768 288.519394 C 311.11144 282.346213 318.493985 279.280328 326.965163 279.272807 Z M 326.965163 279.272807 " stroke="#42240c" stroke-width="6" stroke-opacity="1" stroke-miterlimit="10"/></g><path fill="#f3e8de" d="M 16.980469 18.429688 L 10.964844 19.890625 C 10.800781 19.929688 10.648438 19.910156 10.503906 19.824219 C 10.359375 19.742188 10.265625 19.625 10.226562 19.464844 L 8.21875 11.78125 C 8.179688 11.625 8.199219 11.476562 8.285156 11.339844 C 8.371094 11.199219 8.496094 11.109375 8.660156 11.070312 L 14.675781 9.609375 C 14.839844 9.570312 14.992188 9.589844 15.136719 9.675781 C 15.28125 9.757812 15.371094 9.875 15.414062 10.035156 L 17.421875 17.71875 C 17.460938 17.875 17.4375 18.023438 17.351562 18.160156 C 17.265625 18.300781 17.144531 18.390625 16.980469 18.429688 Z M 16.980469 18.429688 " fill-opacity="1" fill-rule="nonzero"/><g clip-path="url(#5d348f2857)"><path stroke-linecap="butt" transform="matrix(-0.0189102, 0.00459503, -0.00476396, -0.0182397, 24.947909, 21.786739)" fill="none" stroke-linejoin="miter" d="M 352.584684 272.877021 L 670.68873 272.918691 C 679.354149 272.960104 686.675852 275.875435 692.746614 282.116381 C 698.868109 288.155945 702.007885 295.3718 701.870235 304.117774 L 701.917937 725.38691 C 701.83102 733.931503 698.931966 741.339324 692.883028 747.311124 C 686.783356 753.484305 679.400811 756.550189 670.735393 756.508776 L 352.631346 756.467106 C 343.965928 756.425693 336.644225 753.510362 330.573463 747.269417 C 324.451968 741.229852 321.506432 734.062931 321.449842 725.268023 L 321.402139 303.998887 C 321.489056 295.454294 324.582351 288.095407 330.631289 282.123607 C 336.730961 275.950426 343.919265 272.835608 352.584684 272.877021 Z M 352.584684 272.877021 " stroke="#42240c" stroke-width="6" stroke-opacity="1" stroke-miterlimit="10"/></g><path fill="#f3e8de" d="M 17.402344 18.328125 L 11.382812 19.789062 C 11.21875 19.828125 11.066406 19.804688 10.921875 19.722656 C 10.78125 19.640625 10.6875 19.519531 10.648438 19.363281 L 8.640625 11.679688 C 8.597656 11.523438 8.621094 11.375 8.707031 11.234375 C 8.792969 11.097656 8.917969 11.007812 9.078125 10.96875 L 15.097656 9.507812 C 15.257812 9.46875 15.414062 9.488281 15.554688 9.570312 C 15.699219 9.65625 15.792969 9.773438 15.832031 9.929688 L 17.839844 17.617188 C 17.882812 17.773438 17.859375 17.921875 17.773438 18.058594 C 17.6875 18.199219 17.5625 18.285156 17.402344 18.328125 Z M 17.402344 18.328125 " fill-opacity="1" fill-rule="nonzero"/><g clip-path="url(#20952531a1)"><path stroke-linecap="butt" transform="matrix(-0.0189102, 0.00459503, -0.00476396, -0.0182397, 25.749804, 21.486541)" fill="none" stroke-linejoin="miter" d="M 374.061197 267.397209 L 692.359484 267.487813 C 701.024902 267.529226 708.295873 270.645938 714.417368 276.685502 C 720.344622 282.676133 723.433665 290.093369 723.346748 298.637962 L 723.394451 719.907098 C 723.501774 728.500625 720.40848 735.859512 714.308808 742.032693 C 708.25987 748.004492 700.877325 751.070377 692.406147 751.077898 L 374.10786 750.987293 C 365.636682 750.994815 358.120738 748.03055 352.193484 742.039919 C 346.122722 735.798974 342.982946 728.583119 343.069863 720.038526 L 343.072893 298.568008 C 342.96557 289.974482 346.058864 282.615595 352.107803 276.643795 C 358.207474 270.470614 365.539286 267.606111 374.061197 267.397209 Z M 374.061197 267.397209 " stroke="#42240c" stroke-width="6" stroke-opacity="1" stroke-miterlimit="10"/></g><path fill="#f3e8de" d="M 17.820312 18.222656 L 11.804688 19.6875 C 11.640625 19.726562 11.488281 19.703125 11.34375 19.621094 C 11.199219 19.539062 11.109375 19.417969 11.066406 19.261719 L 9.058594 11.578125 C 9.019531 11.421875 9.042969 11.273438 9.128906 11.132812 C 9.214844 10.996094 9.335938 10.90625 9.5 10.867188 L 15.515625 9.40625 C 15.679688 9.363281 15.832031 9.386719 15.976562 9.46875 C 16.121094 9.550781 16.214844 9.671875 16.253906 9.828125 L 18.261719 17.515625 C 18.300781 17.671875 18.28125 17.820312 18.195312 17.957031 C 18.109375 18.097656 17.984375 18.183594 17.820312 18.222656 Z M 17.820312 18.222656 " fill-opacity="1" fill-rule="nonzero"/><g clip-path="url(#b6f5897afb)"><path stroke-linecap="butt" transform="matrix(-0.0189102, 0.00459503, -0.00476396, -0.0182397, 26.551687, 21.186529)" fill="none" stroke-linejoin="miter" d="M 395.678193 262.177136 L 713.832972 262.017425 C 722.498391 262.058838 729.769361 265.17555 735.890856 271.215115 C 742.012351 277.254679 744.907153 284.622981 745.014477 293.216508 L 745.062179 714.485644 C 744.975262 723.030237 741.881968 730.389124 735.782297 736.562305 C 729.733358 742.534105 722.545053 745.648923 713.879635 745.60751 L 395.775588 745.56584 C 387.059437 745.725808 379.788467 742.609096 373.666972 736.569532 C 367.545477 730.529968 364.456434 723.112731 364.543351 714.568138 L 364.546381 293.097621 C 364.633298 284.553028 367.532352 277.145207 373.581291 271.173407 C 379.680963 265.000226 387.012774 262.135723 395.678193 262.177136 Z M 395.678193 262.177136 " stroke="#42240c" stroke-width="6" stroke-opacity="1" stroke-miterlimit="10"/></g><path fill="#e47047" d="M 17.945312 18.195312 L 12.28125 19.570312 C 12.121094 19.609375 11.972656 19.589844 11.835938 19.507812 C 11.695312 19.425781 11.605469 19.308594 11.566406 19.15625 L 9.550781 11.441406 C 9.507812 11.289062 9.53125 11.144531 9.613281 11.011719 C 9.699219 10.875 9.820312 10.789062 9.976562 10.75 L 15.640625 9.375 C 15.796875 9.335938 15.949219 9.355469 16.085938 9.4375 C 16.226562 9.519531 16.316406 9.636719 16.355469 9.789062 L 18.371094 17.503906 C 18.410156 17.65625 18.390625 17.800781 18.304688 17.933594 C 18.222656 18.070312 18.101562 18.15625 17.945312 18.195312 Z M 17.945312 18.195312 " fill-opacity="1" fill-rule="nonzero"/><g clip-path="url(#c8343add6b)"><path stroke-linecap="butt" transform="matrix(-0.0189102, 0.00459503, -0.00476396, -0.0182397, 27.125034, 20.971903)" fill="none" stroke-linejoin="miter" d="M 420.404792 258.138499 L 719.911095 258.206502 C 728.382273 258.198981 735.509736 261.065378 741.242751 267.007075 C 747.170006 272.997705 750.115541 280.164626 750.079357 288.507837 L 750.109676 711.485892 C 750.267733 719.878038 747.225171 727.035543 741.421206 732.854896 C 735.372267 738.826695 728.234695 741.740132 719.957758 741.796587 L 420.451455 741.728583 C 412.174517 741.785039 404.852814 738.869708 399.119799 732.928011 C 393.192544 726.937381 390.247009 719.77046 390.283193 711.427248 L 390.252873 288.449194 C 390.289057 280.105982 393.137379 272.899543 399.135584 267.129124 C 404.990283 261.10839 412.127854 258.194954 420.404792 258.138499 Z M 420.404792 258.138499 " stroke="#42240c" stroke-width="6" stroke-opacity="1" stroke-miterlimit="10"/></g><path fill="#42240c" d="M 14.121094 12.472656 C 14.035156 12.355469 14.019531 12.246094 14.15625 12.144531 C 14.1875 12.121094 14.210938 12.085938 14.234375 12.050781 C 14.257812 12.019531 14.292969 11.980469 14.25 11.945312 C 14.207031 11.914062 14.175781 11.953125 14.148438 11.984375 C 14.121094 12.015625 14.097656 12.046875 14.074219 12.078125 C 14.050781 12.105469 14.023438 12.128906 13.992188 12.164062 C 13.921875 12.050781 13.855469 11.945312 13.789062 11.84375 C 13.761719 11.804688 13.777344 11.777344 13.800781 11.746094 C 13.847656 11.679688 13.90625 11.625 13.976562 11.578125 C 14.0625 11.515625 14.15625 11.46875 14.257812 11.4375 C 14.738281 11.296875 15.203125 11.328125 15.640625 11.578125 C 15.691406 11.609375 15.726562 11.609375 15.773438 11.574219 C 15.84375 11.515625 15.914062 11.460938 15.976562 11.394531 C 16.003906 11.363281 16.039062 11.328125 16.082031 11.363281 C 16.128906 11.402344 16.097656 11.449219 16.066406 11.480469 C 16.003906 11.542969 15.933594 11.601562 15.863281 11.660156 C 15.847656 11.675781 15.828125 11.6875 15.816406 11.714844 C 15.824219 11.726562 15.832031 11.742188 15.84375 11.753906 C 15.910156 11.835938 15.917969 11.835938 16.007812 11.773438 C 16.066406 11.730469 16.117188 11.679688 16.167969 11.625 C 16.183594 11.605469 16.199219 11.582031 16.21875 11.5625 C 16.238281 11.546875 16.261719 11.542969 16.285156 11.550781 C 16.3125 11.566406 16.320312 11.589844 16.316406 11.617188 C 16.308594 11.65625 16.285156 11.683594 16.261719 11.710938 C 16.199219 11.777344 16.136719 11.84375 16.058594 11.886719 C 15.992188 11.925781 15.988281 11.960938 16.019531 12.027344 C 16.195312 12.386719 16.214844 12.769531 16.148438 13.160156 C 16.089844 13.5 15.9375 13.789062 15.667969 14.019531 C 15.652344 14.03125 15.644531 14.042969 15.632812 14.054688 C 15.632812 14.101562 15.671875 14.105469 15.695312 14.121094 C 15.933594 14.273438 16 14.691406 15.667969 14.867188 C 15.554688 14.925781 15.441406 14.980469 15.316406 15.015625 C 15.292969 15.023438 15.273438 15.03125 15.25 15.035156 C 15.199219 15.039062 15.136719 15.058594 15.121094 14.996094 C 15.105469 14.945312 15.167969 14.929688 15.207031 14.914062 C 15.242188 14.902344 15.277344 14.890625 15.3125 14.882812 C 15.414062 14.851562 15.511719 14.8125 15.605469 14.757812 C 15.769531 14.664062 15.8125 14.515625 15.730469 14.347656 C 15.660156 14.203125 15.488281 14.128906 15.324219 14.183594 C 15.222656 14.214844 15.136719 14.273438 15.046875 14.328125 C 14.871094 14.4375 14.695312 14.539062 14.507812 14.625 C 14.378906 14.679688 14.25 14.722656 14.105469 14.699219 C 14.066406 14.691406 14.035156 14.703125 14.003906 14.722656 C 13.964844 14.75 13.925781 14.769531 13.878906 14.78125 C 13.847656 14.785156 13.8125 14.785156 13.796875 14.753906 C 13.777344 14.71875 13.800781 14.695312 13.828125 14.675781 C 13.847656 14.664062 13.871094 14.65625 13.890625 14.644531 C 13.941406 14.621094 13.984375 14.585938 14.019531 14.546875 C 14.089844 14.464844 14.089844 14.371094 14.023438 14.289062 C 13.972656 14.226562 13.917969 14.210938 13.84375 14.246094 C 13.78125 14.269531 13.734375 14.308594 13.6875 14.351562 C 13.414062 14.601562 13.101562 14.78125 12.730469 14.859375 C 12.574219 14.890625 12.421875 14.910156 12.265625 14.882812 C 12.199219 14.867188 12.152344 14.886719 12.105469 14.929688 C 12.046875 14.980469 11.988281 15.03125 11.925781 15.074219 C 11.890625 15.097656 11.84375 15.117188 11.816406 15.070312 C 11.789062 15.035156 11.816406 15.003906 11.847656 14.980469 C 11.960938 14.882812 12.074219 14.785156 12.1875 14.6875 C 12.253906 14.632812 12.308594 14.566406 12.339844 14.484375 C 12.414062 14.289062 12.316406 14.113281 12.105469 14.066406 C 11.839844 14.007812 11.613281 14.097656 11.414062 14.25 C 11.355469 14.292969 11.300781 14.355469 11.242188 14.40625 C 11.175781 14.464844 11.148438 14.546875 11.125 14.628906 C 11.117188 14.660156 11.09375 14.6875 11.054688 14.675781 C 11.019531 14.664062 11.003906 14.636719 11.007812 14.601562 C 11.019531 14.5 11.066406 14.410156 11.136719 14.339844 C 11.199219 14.277344 11.179688 14.234375 11.140625 14.167969 C 10.871094 13.734375 10.75 13.265625 10.839844 12.765625 C 10.957031 12.113281 11.367188 11.6875 12.019531 11.503906 C 12.460938 11.382812 12.90625 11.421875 13.324219 11.621094 C 13.53125 11.722656 13.695312 11.863281 13.804688 12.0625 C 13.9375 12.300781 14.042969 12.542969 14.082031 12.8125 C 14.089844 12.855469 14.089844 12.914062 14.152344 12.90625 C 14.21875 12.894531 14.203125 12.832031 14.1875 12.796875 C 14.121094 12.640625 14.199219 12.542969 14.320312 12.453125 C 14.371094 12.417969 14.410156 12.367188 14.453125 12.320312 C 14.472656 12.300781 14.480469 12.269531 14.460938 12.246094 C 14.429688 12.214844 14.398438 12.230469 14.375 12.253906 C 14.328125 12.289062 14.289062 12.332031 14.246094 12.375 C 14.207031 12.410156 14.179688 12.457031 14.121094 12.476562 Z M 14.046875 13.105469 C 14.019531 13.117188 14.015625 13.117188 14.011719 13.121094 C 13.992188 13.140625 13.976562 13.160156 13.957031 13.179688 C 13.734375 13.441406 13.441406 13.609375 13.109375 13.703125 C 12.761719 13.800781 12.433594 13.726562 12.128906 13.558594 C 12.054688 13.515625 12.054688 13.507812 12.101562 13.429688 C 12.148438 13.355469 12.199219 13.28125 12.242188 13.203125 C 12.316406 13.085938 12.398438 12.972656 12.449219 12.84375 C 12.464844 12.804688 12.476562 12.765625 12.441406 12.730469 C 12.40625 12.699219 12.363281 12.710938 12.328125 12.730469 C 12.246094 12.773438 12.167969 12.816406 12.085938 12.863281 C 11.953125 12.941406 11.824219 13.023438 11.679688 13.105469 C 11.378906 12.605469 11.519531 12.160156 11.8125 11.726562 C 11.796875 11.722656 11.785156 11.71875 11.777344 11.722656 C 11.390625 11.921875 11.109375 12.210938 11 12.625 C 10.863281 13.125 10.964844 13.601562 11.214844 14.054688 C 11.28125 14.171875 11.28125 14.171875 11.402344 14.097656 C 11.609375 13.972656 11.832031 13.894531 12.082031 13.933594 C 12.460938 13.996094 12.613281 14.351562 12.390625 14.648438 C 12.367188 14.683594 12.328125 14.710938 12.324219 14.773438 C 12.8125 14.777344 13.214844 14.59375 13.566406 14.292969 C 13.933594 13.976562 14.023438 13.558594 14.046875 13.105469 Z M 14.175781 14.578125 C 14.285156 14.582031 14.378906 14.546875 14.46875 14.507812 C 14.652344 14.421875 14.824219 14.320312 14.996094 14.214844 C 15.125 14.136719 15.25 14.050781 15.40625 14.042969 C 15.445312 14.039062 15.464844 14.015625 15.492188 14 C 15.835938 13.753906 16 13.414062 16.042969 13.011719 C 16.046875 12.96875 16.058594 12.929688 16.042969 12.886719 C 16.011719 12.894531 16 12.914062 15.984375 12.929688 C 15.71875 13.230469 15.371094 13.367188 14.972656 13.40625 C 14.945312 13.410156 14.917969 13.410156 14.890625 13.40625 C 14.789062 13.398438 14.78125 13.390625 14.820312 13.304688 C 14.882812 13.171875 14.945312 13.039062 15.007812 12.902344 C 15.023438 12.867188 15.035156 12.828125 15.046875 12.792969 C 15.058594 12.761719 15.058594 12.730469 15.027344 12.707031 C 14.996094 12.6875 14.964844 12.695312 14.9375 12.710938 C 14.910156 12.726562 14.882812 12.746094 14.859375 12.765625 C 14.71875 12.875 14.578125 12.980469 14.4375 13.089844 C 14.363281 13.148438 14.285156 13.152344 14.203125 13.09375 C 14.199219 13.089844 14.191406 13.097656 14.175781 13.101562 C 14.152344 13.441406 14.105469 13.777344 13.921875 14.078125 C 14.175781 14.199219 14.234375 14.324219 14.175781 14.578125 Z M 13.183594 12.277344 C 13.222656 12.183594 13.230469 12.097656 13.1875 12.011719 C 13.132812 11.910156 13.015625 11.859375 12.910156 11.902344 C 12.804688 11.945312 12.726562 12.019531 12.699219 12.128906 C 12.664062 12.261719 12.714844 12.378906 12.820312 12.425781 C 12.925781 12.472656 13.0625 12.433594 13.140625 12.335938 C 13.160156 12.316406 13.171875 12.292969 13.183594 12.277344 Z M 15.332031 12.054688 C 15.34375 12.035156 15.351562 12.011719 15.359375 11.992188 C 15.398438 11.875 15.351562 11.765625 15.25 11.722656 C 15.144531 11.683594 15.03125 11.726562 14.96875 11.832031 C 14.945312 11.871094 14.929688 11.910156 14.929688 11.957031 C 14.921875 12.070312 15.003906 12.179688 15.105469 12.199219 C 15.207031 12.21875 15.28125 12.171875 15.332031 12.054688 Z M 13.171875 12.796875 C 13.132812 12.863281 13.144531 12.941406 13.171875 13.019531 C 13.207031 13.109375 13.269531 13.136719 13.355469 13.085938 C 13.488281 13.011719 13.558594 12.894531 13.5625 12.75 C 13.5625 12.628906 13.457031 12.566406 13.339844 12.617188 C 13.261719 12.652344 13.207031 12.710938 13.171875 12.796875 Z M 15.496094 12.347656 C 15.488281 12.382812 15.476562 12.417969 15.46875 12.457031 C 15.453125 12.519531 15.476562 12.570312 15.53125 12.605469 C 15.585938 12.640625 15.65625 12.632812 15.710938 12.585938 C 15.785156 12.527344 15.820312 12.390625 15.785156 12.308594 C 15.746094 12.214844 15.65625 12.191406 15.574219 12.25 C 15.542969 12.273438 15.511719 12.304688 15.496094 12.347656 Z M 15.496094 12.347656 " fill-opacity="1" fill-rule="nonzero"/><path fill="#42240c" d="M 13.007812 15.449219 C 13.039062 15.394531 13.050781 15.347656 13.089844 15.308594 C 13.25 15.164062 13.460938 15.199219 13.554688 15.390625 C 13.589844 15.460938 13.605469 15.535156 13.601562 15.609375 C 13.597656 15.796875 13.511719 15.945312 13.375 16.066406 C 13.203125 16.214844 12.996094 16.148438 12.945312 15.929688 C 12.902344 15.757812 12.953125 15.59375 13.007812 15.449219 Z M 13.460938 15.660156 C 13.488281 15.570312 13.46875 15.492188 13.429688 15.421875 C 13.371094 15.324219 13.238281 15.320312 13.171875 15.417969 C 13.132812 15.472656 13.109375 15.539062 13.09375 15.621094 C 13.230469 15.582031 13.34375 15.613281 13.460938 15.660156 Z M 13.328125 15.742188 C 13.25 15.703125 13.097656 15.738281 13.066406 15.800781 C 13.042969 15.847656 13.085938 15.976562 13.132812 16.003906 C 13.207031 16.042969 13.335938 15.976562 13.378906 15.878906 C 13.402344 15.828125 13.378906 15.765625 13.328125 15.742188 Z M 13.328125 15.742188 " fill-opacity="1" fill-rule="nonzero"/><path fill="#ffffff" d="M 14.046875 13.105469 C 14.023438 13.5625 13.933594 13.976562 13.566406 14.292969 C 13.214844 14.59375 12.8125 14.777344 12.324219 14.773438 C 12.328125 14.710938 12.367188 14.683594 12.390625 14.648438 C 12.613281 14.351562 12.460938 13.996094 12.082031 13.9375 C 11.832031 13.894531 11.609375 13.972656 11.402344 14.097656 C 11.28125 14.171875 11.28125 14.171875 11.214844 14.054688 C 10.964844 13.601562 10.863281 13.125 11 12.625 C 11.109375 12.210938 11.390625 11.921875 11.777344 11.722656 C 11.785156 11.71875 11.796875 11.722656 11.8125 11.726562 C 11.519531 12.160156 11.378906 12.609375 11.679688 13.105469 C 11.824219 13.023438 11.953125 12.941406 12.085938 12.863281 C 12.167969 12.820312 12.246094 12.773438 12.328125 12.730469 C 12.363281 12.710938 12.40625 12.699219 12.441406 12.730469 C 12.476562 12.765625 12.464844 12.804688 12.449219 12.84375 C 12.398438 12.972656 12.316406 13.085938 12.242188 13.203125 C 12.199219 13.28125 12.148438 13.355469 12.101562 13.429688 C 12.054688 13.507812 12.054688 13.515625 12.128906 13.558594 C 12.433594 13.726562 12.761719 13.800781 13.109375 13.703125 C 13.441406 13.609375 13.734375 13.441406 13.957031 13.179688 C 13.976562 13.160156 13.992188 13.140625 14.011719 13.121094 C 14.015625 13.117188 14.019531 13.117188 14.046875 13.105469 Z M 14.046875 13.105469 " fill-opacity="1" fill-rule="nonzero"/><path fill="#ffffff" d="M 14.175781 14.578125 C 14.234375 14.324219 14.175781 14.199219 13.921875 14.078125 C 14.105469 13.777344 14.152344 13.441406 14.175781 13.101562 C 14.191406 13.097656 14.199219 13.09375 14.203125 13.09375 C 14.285156 13.152344 14.363281 13.148438 14.4375 13.089844 C 14.578125 12.980469 14.71875 12.875 14.859375 12.765625 C 14.882812 12.746094 14.910156 12.726562 14.9375 12.710938 C 14.964844 12.695312 14.996094 12.6875 15.027344 12.707031 C 15.058594 12.730469 15.058594 12.761719 15.050781 12.792969 C 15.035156 12.828125 15.023438 12.867188 15.007812 12.902344 C 14.945312 13.039062 14.882812 13.171875 14.820312 13.304688 C 14.78125 13.390625 14.789062 13.402344 14.890625 13.40625 C 14.917969 13.410156 14.945312 13.410156 14.972656 13.40625 C 15.371094 13.367188 15.71875 13.230469 15.984375 12.929688 C 16 12.914062 16.011719 12.894531 16.042969 12.886719 C 16.058594 12.929688 16.046875 12.972656 16.042969 13.011719 C 16 13.414062 15.835938 13.753906 15.492188 14 C 15.464844 14.019531 15.445312 14.039062 15.40625 14.042969 C 15.25 14.050781 15.125 14.136719 14.996094 14.214844 C 14.824219 14.320312 14.652344 14.421875 14.46875 14.507812 C 14.378906 14.546875 14.285156 14.582031 14.179688 14.578125 Z M 14.175781 14.578125 " fill-opacity="1" fill-rule="nonzero"/><path fill="#ffffff" d="M 13.183594 12.277344 C 13.171875 12.292969 13.160156 12.316406 13.140625 12.335938 C 13.0625 12.433594 12.925781 12.472656 12.820312 12.425781 C 12.714844 12.378906 12.664062 12.261719 12.699219 12.132812 C 12.726562 12.019531 12.804688 11.945312 12.910156 11.902344 C 13.015625 11.859375 13.132812 11.910156 13.1875 12.011719 C 13.230469 12.097656 13.222656 12.183594 13.183594 12.277344 Z M 13.183594 12.277344 " fill-opacity="1" fill-rule="nonzero"/><path fill="#ffffff" d="M 15.332031 12.054688 C 15.28125 12.171875 15.207031 12.21875 15.105469 12.199219 C 15.003906 12.179688 14.921875 12.070312 14.929688 11.957031 C 14.929688 11.914062 14.945312 11.871094 14.96875 11.832031 C 15.03125 11.726562 15.144531 11.683594 15.25 11.722656 C 15.351562 11.765625 15.398438 11.875 15.359375 11.992188 C 15.351562 12.011719 15.34375 12.035156 15.332031 12.054688 Z M 15.332031 12.054688 " fill-opacity="1" fill-rule="nonzero"/><path fill="#ffffff" d="M 13.171875 12.796875 C 13.207031 12.710938 13.261719 12.652344 13.339844 12.617188 C 13.457031 12.566406 13.5625 12.628906 13.5625 12.75 C 13.558594 12.898438 13.488281 13.011719 13.355469 13.089844 C 13.269531 13.136719 13.203125 13.109375 13.171875 13.019531 C 13.144531 12.941406 13.132812 12.863281 13.171875 12.796875 Z M 13.171875 12.796875 " fill-opacity="1" fill-rule="nonzero"/><path fill="#ffffff" d="M 15.496094 12.347656 C 15.511719 12.304688 15.542969 12.273438 15.574219 12.25 C 15.65625 12.191406 15.746094 12.214844 15.785156 12.308594 C 15.820312 12.390625 15.785156 12.527344 15.710938 12.589844 C 15.65625 12.632812 15.585938 12.640625 15.53125 12.605469 C 15.476562 12.574219 15.453125 12.519531 15.46875 12.457031 C 15.476562 12.417969 15.488281 12.382812 15.496094 12.347656 Z M 15.496094 12.347656 " fill-opacity="1" fill-rule="nonzero"/><path fill="#f9a09e" d="M 13.460938 15.660156 C 13.34375 15.613281 13.230469 15.582031 13.09375 15.621094 C 13.109375 15.539062 13.132812 15.472656 13.171875 15.417969 C 13.238281 15.320312 13.371094 15.324219 13.429688 15.421875 C 13.46875 15.492188 13.488281 15.570312 13.460938 15.660156 Z M 13.460938 15.660156 " fill-opacity="1" fill-rule="nonzero"/><path fill="#f9a09e" d="M 13.332031 15.742188 C 13.378906 15.765625 13.402344 15.828125 13.378906 15.878906 C 13.335938 15.976562 13.207031 16.039062 13.136719 16.003906 C 13.085938 15.976562 13.042969 15.847656 13.066406 15.800781 C 13.097656 15.738281 13.25 15.703125 13.332031 15.742188 Z M 13.332031 15.742188 " fill-opacity="1" fill-rule="nonzero"/><g clip-path="url(#507ef40cd8)"><path fill="#42240c" d="M 11.566406 20.601562 C 11.570312 20.535156 11.585938 20.46875 11.605469 20.402344 C 11.628906 20.316406 11.6875 20.261719 11.777344 20.230469 C 11.851562 20.207031 11.925781 20.195312 12.007812 20.195312 C 12.132812 20.195312 12.253906 20.214844 12.375 20.238281 C 12.414062 20.242188 12.449219 20.257812 12.480469 20.214844 C 12.535156 20.148438 12.613281 20.144531 12.695312 20.15625 C 12.832031 20.175781 12.945312 20.234375 13.011719 20.355469 C 13.039062 20.398438 13.0625 20.410156 13.113281 20.394531 C 13.308594 20.332031 13.492188 20.253906 13.65625 20.140625 C 13.855469 20.003906 14.042969 19.859375 14.226562 19.703125 C 14.242188 19.6875 14.269531 19.679688 14.261719 19.644531 C 14.125 19.542969 13.988281 19.441406 13.851562 19.335938 L 13.855469 19.332031 L 13.589844 19.125 C 13.542969 19.082031 13.496094 19.042969 13.449219 19.003906 C 13.40625 18.960938 13.367188 18.917969 13.339844 18.867188 C 13.269531 18.738281 13.3125 18.617188 13.449219 18.5625 C 13.496094 18.546875 13.546875 18.535156 13.597656 18.535156 C 13.632812 18.535156 13.664062 18.546875 13.691406 18.574219 C 13.832031 18.722656 14.011719 18.832031 14.175781 18.957031 C 14.179688 18.960938 14.183594 18.960938 14.1875 18.964844 L 14.191406 18.976562 C 14.191406 18.976562 14.273438 19.03125 14.339844 19.074219 C 14.433594 19.148438 14.523438 19.214844 14.621094 19.277344 C 14.664062 19.164062 14.664062 19.058594 14.660156 18.941406 L 14.652344 18.808594 C 14.65625 18.796875 14.65625 18.789062 14.652344 18.777344 C 14.652344 18.773438 14.652344 18.769531 14.652344 18.765625 C 14.648438 18.761719 14.648438 18.753906 14.648438 18.75 C 14.628906 18.648438 14.601562 18.554688 14.550781 18.464844 C 14.523438 18.414062 14.496094 18.359375 14.46875 18.308594 C 14.417969 18.214844 14.445312 18.128906 14.503906 18.050781 C 14.566406 17.96875 14.65625 17.933594 14.757812 17.941406 C 14.824219 17.945312 14.871094 17.992188 14.90625 18.042969 C 14.988281 18.15625 15.035156 18.28125 15.074219 18.410156 C 15.09375 18.464844 15.109375 18.523438 15.125 18.582031 C 15.125 18.582031 15.125 18.582031 15.128906 18.582031 L 15.15625 18.777344 C 15.15625 18.789062 15.15625 18.796875 15.160156 18.808594 C 15.199219 19.042969 15.160156 19.265625 15.058594 19.480469 C 15.015625 19.566406 15.015625 19.570312 15.09375 19.625 C 15.476562 19.894531 15.847656 20.179688 16.195312 20.484375 C 16.234375 20.515625 16.265625 20.523438 16.3125 20.507812 C 16.390625 20.480469 16.476562 20.476562 16.5625 20.484375 C 16.664062 20.496094 16.75 20.554688 16.761719 20.644531 C 16.769531 20.714844 16.804688 20.746094 16.859375 20.773438 C 16.894531 20.792969 16.925781 20.816406 16.957031 20.835938 C 17.101562 20.9375 17.246094 21.035156 17.390625 21.136719 C 17.429688 21.164062 17.460938 21.167969 17.503906 21.140625 C 17.566406 21.09375 17.640625 21.070312 17.71875 21.058594 C 17.851562 21.035156 17.980469 21.042969 18.109375 21.066406 C 18.5 21.128906 18.777344 21.328125 18.914062 21.691406 C 18.996094 21.902344 18.992188 22.117188 18.894531 22.320312 C 18.835938 22.433594 18.761719 22.539062 18.699219 22.652344 C 18.652344 22.738281 18.578125 22.78125 18.476562 22.78125 C 18.359375 22.78125 18.242188 22.777344 18.125 22.761719 C 17.832031 22.726562 17.539062 22.691406 17.246094 22.652344 C 17.019531 22.625 16.789062 22.597656 16.5625 22.558594 C 16.402344 22.53125 16.3125 22.445312 16.261719 22.304688 C 16.257812 22.285156 16.246094 22.265625 16.242188 22.246094 C 16.210938 22.117188 16.179688 21.988281 16.148438 21.855469 C 16.109375 21.652344 16.109375 21.445312 16.09375 21.242188 C 16.09375 21.195312 16.082031 21.175781 16.03125 21.171875 C 15.953125 21.160156 15.898438 21.113281 15.871094 21.039062 C 15.84375 20.96875 15.828125 20.898438 15.855469 20.828125 C 15.875 20.78125 15.859375 20.761719 15.824219 20.734375 C 15.484375 20.472656 15.121094 20.242188 14.773438 19.996094 C 14.738281 19.972656 14.71875 19.96875 14.683594 20.003906 C 14.273438 20.40625 13.789062 20.6875 13.226562 20.835938 C 13.175781 20.847656 13.160156 20.871094 13.15625 20.917969 C 13.140625 21.039062 13.085938 21.097656 12.957031 21.121094 C 12.914062 21.128906 12.914062 21.148438 12.917969 21.179688 C 12.929688 21.226562 12.9375 21.273438 12.941406 21.320312 C 12.957031 21.417969 12.957031 21.417969 13.054688 21.417969 C 13.277344 21.410156 13.476562 21.464844 13.664062 21.578125 C 13.839844 21.683594 13.929688 21.835938 13.9375 22.039062 C 13.945312 22.222656 13.917969 22.40625 13.859375 22.585938 C 13.816406 22.722656 13.777344 22.75 13.628906 22.746094 C 13.382812 22.742188 13.136719 22.703125 12.886719 22.6875 C 12.597656 22.664062 12.382812 22.535156 12.21875 22.300781 C 12.050781 22.066406 11.867188 21.835938 11.667969 21.621094 C 11.632812 21.582031 11.609375 21.539062 11.605469 21.484375 C 11.574219 21.191406 11.539062 20.898438 11.566406 20.601562 Z M 11.566406 20.601562 " fill-opacity="1" fill-rule="nonzero"/></g><path fill="#42240c" d="M 15.0625 18.800781 C 15.035156 18.625 14.992188 18.453125 14.925781 18.285156 C 14.902344 18.226562 14.875 18.171875 14.839844 18.121094 C 14.78125 18.03125 14.757812 18.019531 14.679688 18.042969 C 14.601562 18.066406 14.542969 18.140625 14.542969 18.207031 C 14.539062 18.257812 14.566406 18.292969 14.589844 18.332031 C 14.730469 18.554688 14.773438 18.796875 14.761719 19.050781 C 14.757812 19.128906 14.746094 19.207031 14.726562 19.28125 C 14.710938 19.328125 14.722656 19.359375 14.765625 19.386719 C 14.804688 19.410156 14.839844 19.441406 14.875 19.464844 C 14.929688 19.503906 14.933594 19.503906 14.964844 19.441406 C 15.070312 19.238281 15.089844 19.023438 15.0625 18.800781 Z M 15.0625 18.800781 " fill-opacity="1" fill-rule="nonzero"/><g clip-path="url(#d7a82f0b3c)"><path fill="#42240c" d="M 16.414062 22.386719 C 16.433594 22.421875 16.472656 22.433594 16.511719 22.445312 C 16.652344 22.484375 16.800781 22.503906 16.949219 22.523438 C 17.394531 22.570312 17.832031 22.640625 18.277344 22.679688 C 18.332031 22.683594 18.386719 22.6875 18.4375 22.6875 C 18.523438 22.695312 18.589844 22.667969 18.625 22.585938 C 18.636719 22.554688 18.667969 22.53125 18.667969 22.496094 C 17.886719 22.457031 17.117188 22.375 16.339844 22.21875 C 16.347656 22.28125 16.382812 22.335938 16.414062 22.386719 Z M 16.414062 22.386719 " fill-opacity="1" fill-rule="nonzero"/></g><g clip-path="url(#f2e7786eca)"><path fill="#42240c" d="M 15.976562 21.03125 C 16.027344 21.097656 16.09375 21.082031 16.160156 21.066406 C 16.191406 21.0625 16.222656 21.046875 16.25 21.039062 C 16.273438 21.03125 16.296875 21.03125 16.308594 21.050781 C 16.324219 21.074219 16.3125 21.097656 16.292969 21.117188 C 16.28125 21.121094 16.273438 21.128906 16.265625 21.132812 C 16.191406 21.148438 16.183594 21.203125 16.191406 21.257812 C 16.210938 21.441406 16.207031 21.621094 16.238281 21.800781 C 16.246094 21.847656 16.257812 21.894531 16.265625 21.941406 C 16.285156 22.058594 16.359375 22.121094 16.472656 22.148438 C 16.628906 22.1875 16.785156 22.207031 16.945312 22.230469 C 17.417969 22.296875 17.894531 22.355469 18.371094 22.382812 C 18.386719 22.386719 18.402344 22.382812 18.414062 22.386719 C 18.480469 22.386719 18.542969 22.390625 18.605469 22.390625 C 18.726562 22.386719 18.789062 22.339844 18.828125 22.230469 C 18.878906 22.070312 18.886719 21.90625 18.828125 21.746094 C 18.730469 21.464844 18.535156 21.28125 18.242188 21.195312 C 18.101562 21.152344 17.960938 21.132812 17.8125 21.140625 C 17.738281 21.144531 17.664062 21.160156 17.597656 21.191406 C 17.511719 21.234375 17.457031 21.296875 17.433594 21.382812 C 17.429688 21.40625 17.421875 21.425781 17.417969 21.445312 C 17.414062 21.472656 17.402344 21.5 17.367188 21.496094 C 17.324219 21.492188 17.324219 21.457031 17.328125 21.425781 C 17.328125 21.382812 17.339844 21.339844 17.359375 21.296875 C 17.378906 21.261719 17.371094 21.242188 17.339844 21.21875 C 17.164062 21.097656 16.992188 20.972656 16.8125 20.855469 C 16.769531 20.828125 16.742188 20.828125 16.722656 20.878906 C 16.703125 20.921875 16.675781 20.960938 16.632812 20.988281 C 16.605469 21.007812 16.570312 21.015625 16.546875 20.984375 C 16.523438 20.957031 16.542969 20.933594 16.566406 20.917969 C 16.621094 20.882812 16.644531 20.828125 16.660156 20.773438 C 16.699219 20.660156 16.644531 20.582031 16.519531 20.574219 C 16.433594 20.570312 16.351562 20.589844 16.269531 20.617188 C 16.191406 20.644531 16.117188 20.6875 16.046875 20.734375 C 16.015625 20.753906 15.992188 20.78125 15.972656 20.808594 C 15.929688 20.871094 15.929688 20.976562 15.976562 21.03125 Z M 15.976562 21.03125 " fill-opacity="1" fill-rule="nonzero"/></g><path fill="#42240c" d="M 15.863281 20.648438 C 15.914062 20.683594 15.949219 20.699219 16.003906 20.652344 C 16.039062 20.621094 16.085938 20.601562 16.132812 20.570312 C 16.109375 20.527344 16.074219 20.507812 16.046875 20.484375 C 15.648438 20.136719 15.210938 19.835938 14.785156 19.519531 C 14.40625 19.242188 14.015625 18.972656 13.648438 18.675781 C 13.617188 18.652344 13.589844 18.628906 13.542969 18.632812 C 13.414062 18.648438 13.367188 18.738281 13.441406 18.84375 C 13.472656 18.886719 13.507812 18.925781 13.546875 18.960938 C 13.773438 19.160156 14.011719 19.34375 14.257812 19.519531 C 14.789062 19.902344 15.339844 20.253906 15.863281 20.648438 Z M 15.863281 20.648438 " fill-opacity="1" fill-rule="nonzero"/><path fill="#42240c" d="M 13.113281 20.582031 C 13.121094 20.597656 13.121094 20.617188 13.125 20.632812 C 13.15625 20.757812 13.160156 20.761719 13.28125 20.722656 C 13.769531 20.574219 14.199219 20.328125 14.566406 19.984375 C 14.589844 19.960938 14.609375 19.9375 14.640625 19.90625 C 14.550781 19.84375 14.476562 19.789062 14.398438 19.734375 C 14.363281 19.707031 14.34375 19.730469 14.316406 19.75 C 14.183594 19.867188 14.042969 19.976562 13.902344 20.085938 C 13.679688 20.25 13.441406 20.394531 13.167969 20.472656 C 13.089844 20.496094 13.09375 20.5 13.113281 20.582031 Z M 13.113281 20.582031 " fill-opacity="1" fill-rule="nonzero"/><g clip-path="url(#5f97d31cbb)"><path fill="#42240c" d="M 13.796875 22.4375 C 13.832031 22.28125 13.859375 22.128906 13.832031 21.96875 C 13.808594 21.855469 13.757812 21.761719 13.660156 21.695312 C 13.40625 21.519531 13.128906 21.453125 12.824219 21.554688 C 12.710938 21.59375 12.601562 21.644531 12.507812 21.71875 C 12.476562 21.742188 12.441406 21.78125 12.40625 21.738281 C 12.371094 21.699219 12.40625 21.664062 12.441406 21.636719 C 12.535156 21.558594 12.648438 21.515625 12.761719 21.476562 C 12.859375 21.441406 12.863281 21.441406 12.847656 21.335938 C 12.839844 21.296875 12.835938 21.253906 12.824219 21.214844 C 12.808594 21.132812 12.785156 21.058594 12.703125 21.011719 C 12.652344 20.980469 12.613281 20.933594 12.585938 20.878906 C 12.574219 20.855469 12.558594 20.832031 12.5625 20.800781 C 12.566406 20.78125 12.578125 20.769531 12.59375 20.761719 C 12.613281 20.757812 12.632812 20.761719 12.640625 20.777344 C 12.652344 20.792969 12.660156 20.816406 12.671875 20.832031 C 12.722656 20.914062 12.792969 20.976562 12.882812 21.011719 C 12.972656 21.050781 13.035156 21.015625 13.054688 20.921875 C 13.066406 20.839844 13.054688 20.757812 13.039062 20.675781 C 13.019531 20.582031 12.976562 20.496094 12.933594 20.410156 C 12.875 20.308594 12.78125 20.257812 12.664062 20.246094 C 12.582031 20.238281 12.539062 20.273438 12.53125 20.355469 C 12.527344 20.398438 12.539062 20.441406 12.554688 20.484375 C 12.566406 20.507812 12.566406 20.53125 12.539062 20.546875 C 12.507812 20.5625 12.484375 20.542969 12.46875 20.519531 C 12.445312 20.484375 12.4375 20.441406 12.4375 20.402344 C 12.4375 20.359375 12.414062 20.339844 12.375 20.332031 C 12.246094 20.308594 12.117188 20.289062 11.984375 20.292969 C 11.941406 20.292969 11.925781 20.300781 11.917969 20.347656 C 11.890625 20.535156 11.90625 20.726562 11.890625 20.871094 C 11.886719 21.0625 11.886719 21.214844 11.882812 21.363281 C 11.882812 21.433594 11.90625 21.492188 11.945312 21.546875 C 12.085938 21.742188 12.238281 21.933594 12.394531 22.121094 C 12.457031 22.195312 12.539062 22.238281 12.632812 22.261719 C 12.851562 22.316406 13.074219 22.34375 13.292969 22.390625 C 13.433594 22.421875 13.578125 22.445312 13.71875 22.472656 C 13.757812 22.480469 13.789062 22.484375 13.796875 22.433594 Z M 13.796875 22.4375 " fill-opacity="1" fill-rule="nonzero"/><path fill="#42240c" d="M 11.65625 20.976562 C 11.664062 21.140625 11.683594 21.304688 11.699219 21.464844 C 11.703125 21.5 11.710938 21.523438 11.734375 21.550781 C 11.945312 21.773438 12.132812 22.011719 12.308594 22.261719 C 12.464844 22.484375 12.679688 22.578125 12.945312 22.597656 C 13.152344 22.609375 13.363281 22.644531 13.570312 22.648438 C 13.609375 22.648438 13.648438 22.648438 13.6875 22.648438 C 13.722656 22.648438 13.746094 22.628906 13.746094 22.597656 C 13.746094 22.566406 13.710938 22.570312 13.6875 22.566406 C 13.378906 22.507812 13.070312 22.449219 12.757812 22.390625 C 12.714844 22.378906 12.667969 22.371094 12.625 22.359375 C 12.492188 22.328125 12.382812 22.261719 12.300781 22.160156 C 12.15625 21.984375 12.015625 21.808594 11.882812 21.625 C 11.8125 21.535156 11.78125 21.433594 11.785156 21.320312 C 11.792969 21.078125 11.796875 20.839844 11.796875 20.597656 C 11.800781 20.511719 11.816406 20.421875 11.824219 20.320312 C 11.738281 20.34375 11.707031 20.390625 11.691406 20.453125 C 11.648438 20.625 11.644531 20.800781 11.65625 20.976562 Z M 11.65625 20.976562 " fill-opacity="1" fill-rule="nonzero"/></g><path fill="#e47047" d="M 14.648438 18.765625 L 14.652344 18.808594 C 14.652344 18.796875 14.652344 18.789062 14.652344 18.777344 C 14.652344 18.773438 14.652344 18.769531 14.652344 18.765625 Z M 14.648438 18.765625 " fill-opacity="1" fill-rule="nonzero"/><g clip-path="url(#ebb5f5dcb5)"><path fill="#be946c" d="M 18.414062 22.386719 C 18.480469 22.386719 18.542969 22.390625 18.605469 22.390625 C 18.726562 22.386719 18.789062 22.339844 18.828125 22.230469 C 18.878906 22.070312 18.886719 21.90625 18.828125 21.746094 C 18.730469 21.464844 18.535156 21.28125 18.242188 21.195312 C 18.101562 21.152344 17.960938 21.132812 17.8125 21.140625 C 17.738281 21.144531 17.664062 21.160156 17.597656 21.191406 C 17.511719 21.234375 17.457031 21.292969 17.433594 21.382812 C 17.429688 21.40625 17.421875 21.425781 17.417969 21.445312 C 17.414062 21.472656 17.402344 21.5 17.367188 21.496094 C 17.324219 21.492188 17.324219 21.457031 17.328125 21.425781 C 17.328125 21.382812 17.339844 21.335938 17.359375 21.296875 C 17.378906 21.261719 17.371094 21.242188 17.339844 21.21875 C 17.164062 21.097656 16.992188 20.972656 16.8125 20.855469 C 16.769531 20.828125 16.742188 20.828125 16.722656 20.878906 C 16.703125 20.921875 16.675781 20.960938 16.632812 20.988281 C 16.605469 21.007812 16.570312 21.015625 16.546875 20.984375 C 16.523438 20.957031 16.542969 20.933594 16.566406 20.917969 C 16.621094 20.882812 16.644531 20.828125 16.660156 20.773438 C 16.699219 20.660156 16.644531 20.582031 16.519531 20.574219 C 16.433594 20.570312 16.351562 20.589844 16.269531 20.617188 C 16.191406 20.644531 16.117188 20.6875 16.046875 20.734375 C 16.015625 20.753906 15.992188 20.78125 15.972656 20.808594 C 15.929688 20.871094 15.929688 20.976562 15.976562 21.03125 C 16.027344 21.097656 16.09375 21.078125 16.160156 21.066406 C 16.191406 21.0625 16.222656 21.046875 16.253906 21.039062 C 16.273438 21.03125 16.296875 21.03125 16.308594 21.050781 C 16.324219 21.074219 16.3125 21.097656 16.292969 21.113281 C 16.285156 21.121094 16.273438 21.128906 16.265625 21.132812 C 16.191406 21.148438 16.183594 21.203125 16.191406 21.257812 C 16.210938 21.4375 16.207031 21.621094 16.238281 21.800781 C 16.246094 21.847656 16.261719 21.894531 16.265625 21.941406 C 16.285156 22.058594 16.359375 22.117188 16.472656 22.148438 C 16.628906 22.1875 16.785156 22.207031 16.945312 22.230469 C 17.417969 22.296875 17.894531 22.355469 18.371094 22.382812 C 18.386719 22.382812 18.402344 22.382812 18.414062 22.382812 C 18.414062 22.386719 18.414062 22.386719 18.414062 22.386719 Z M 18.414062 22.386719 " fill-opacity="1" fill-rule="nonzero"/></g><g clip-path="url(#1484b8e71f)"><path fill="#be946c" d="M 11.890625 20.871094 C 11.886719 21.0625 11.886719 21.214844 11.882812 21.363281 C 11.882812 21.433594 11.90625 21.492188 11.945312 21.546875 C 12.085938 21.742188 12.238281 21.933594 12.394531 22.121094 C 12.457031 22.195312 12.539062 22.238281 12.632812 22.261719 C 12.851562 22.316406 13.074219 22.34375 13.289062 22.390625 C 13.433594 22.421875 13.574219 22.445312 13.71875 22.472656 C 13.757812 22.480469 13.785156 22.484375 13.796875 22.4375 C 13.832031 22.28125 13.859375 22.128906 13.832031 21.96875 C 13.808594 21.855469 13.757812 21.757812 13.660156 21.695312 C 13.40625 21.519531 13.128906 21.453125 12.824219 21.554688 C 12.710938 21.59375 12.601562 21.644531 12.507812 21.71875 C 12.476562 21.738281 12.441406 21.777344 12.40625 21.738281 C 12.371094 21.699219 12.40625 21.664062 12.441406 21.636719 C 12.535156 21.558594 12.648438 21.515625 12.761719 21.476562 C 12.859375 21.441406 12.863281 21.441406 12.847656 21.335938 C 12.839844 21.296875 12.835938 21.253906 12.824219 21.214844 C 12.808594 21.132812 12.785156 21.058594 12.703125 21.011719 C 12.652344 20.980469 12.613281 20.933594 12.585938 20.878906 C 12.574219 20.855469 12.558594 20.832031 12.5625 20.800781 C 12.566406 20.78125 12.578125 20.769531 12.59375 20.761719 C 12.613281 20.757812 12.628906 20.761719 12.640625 20.777344 C 12.652344 20.796875 12.660156 20.816406 12.671875 20.832031 C 12.722656 20.914062 12.792969 20.976562 12.882812 21.011719 C 12.972656 21.050781 13.035156 21.015625 13.054688 20.921875 C 13.066406 20.839844 13.054688 20.757812 13.039062 20.675781 C 13.019531 20.582031 12.976562 20.496094 12.929688 20.410156 C 12.875 20.308594 12.78125 20.257812 12.664062 20.246094 C 12.578125 20.238281 12.539062 20.273438 12.53125 20.355469 C 12.523438 20.398438 12.539062 20.441406 12.554688 20.484375 C 12.566406 20.507812 12.566406 20.53125 12.539062 20.546875 C 12.507812 20.5625 12.484375 20.542969 12.46875 20.519531 C 12.445312 20.484375 12.433594 20.441406 12.433594 20.402344 C 12.433594 20.359375 12.414062 20.339844 12.375 20.332031 C 12.246094 20.308594 12.113281 20.289062 11.984375 20.292969 C 11.941406 20.292969 11.925781 20.304688 11.917969 20.351562 C 11.890625 20.535156 11.90625 20.726562 11.890625 20.871094 Z M 11.890625 20.871094 " fill-opacity="1" fill-rule="nonzero"/></g><path fill="#7a4935" d="M 16.132812 20.570312 C 16.109375 20.527344 16.074219 20.507812 16.046875 20.484375 C 15.648438 20.136719 15.210938 19.835938 14.785156 19.519531 C 14.40625 19.242188 14.015625 18.972656 13.648438 18.679688 C 13.617188 18.65625 13.589844 18.628906 13.542969 18.632812 C 13.414062 18.648438 13.367188 18.738281 13.441406 18.84375 C 13.472656 18.886719 13.507812 18.925781 13.546875 18.960938 C 13.773438 19.160156 14.011719 19.34375 14.257812 19.519531 C 14.789062 19.902344 15.339844 20.253906 15.863281 20.648438 C 15.914062 20.683594 15.949219 20.699219 16.003906 20.652344 C 16.039062 20.621094 16.085938 20.601562 16.132812 20.574219 Z M 16.132812 20.570312 " fill-opacity="1" fill-rule="nonzero"/><path fill="#7a4935" d="M 14.640625 19.90625 C 14.550781 19.84375 14.476562 19.789062 14.398438 19.734375 C 14.363281 19.707031 14.34375 19.730469 14.316406 19.75 C 14.183594 19.867188 14.042969 19.976562 13.902344 20.085938 C 13.679688 20.25 13.441406 20.394531 13.167969 20.472656 C 13.089844 20.496094 13.09375 20.5 13.113281 20.582031 C 13.121094 20.597656 13.121094 20.617188 13.125 20.632812 C 13.15625 20.757812 13.160156 20.761719 13.28125 20.722656 C 13.769531 20.574219 14.199219 20.328125 14.566406 19.984375 C 14.589844 19.960938 14.609375 19.9375 14.640625 19.90625 Z M 14.640625 19.90625 " fill-opacity="1" fill-rule="nonzero"/><g clip-path="url(#dbed303428)"><path fill="#ffffff" d="M 16.339844 22.21875 C 16.347656 22.28125 16.382812 22.335938 16.414062 22.386719 C 16.433594 22.421875 16.472656 22.433594 16.511719 22.445312 C 16.65625 22.484375 16.800781 22.503906 16.949219 22.523438 C 17.394531 22.570312 17.835938 22.640625 18.277344 22.679688 C 18.332031 22.6875 18.386719 22.6875 18.4375 22.691406 C 18.523438 22.695312 18.589844 22.667969 18.625 22.585938 C 18.636719 22.554688 18.667969 22.53125 18.667969 22.496094 C 17.886719 22.457031 17.117188 22.375 16.339844 22.21875 Z M 16.339844 22.21875 " fill-opacity="1" fill-rule="nonzero"/></g><path fill="#7a4935" d="M 14.542969 18.210938 C 14.539062 18.257812 14.566406 18.292969 14.589844 18.332031 C 14.730469 18.554688 14.773438 18.796875 14.761719 19.050781 C 14.757812 19.128906 14.746094 19.207031 14.726562 19.28125 C 14.710938 19.328125 14.722656 19.359375 14.765625 19.386719 C 14.804688 19.410156 14.839844 19.441406 14.875 19.46875 C 14.929688 19.503906 14.933594 19.503906 14.964844 19.441406 C 15.070312 19.238281 15.089844 19.023438 15.0625 18.800781 C 15.035156 18.625 14.992188 18.453125 14.925781 18.285156 C 14.902344 18.226562 14.875 18.171875 14.839844 18.121094 C 14.78125 18.03125 14.757812 18.019531 14.679688 18.042969 C 14.601562 18.066406 14.542969 18.140625 14.542969 18.210938 Z M 14.542969 18.210938 " fill-opacity="1" fill-rule="nonzero"/><g clip-path="url(#845a0af409)"><path fill="#ffffff" d="M 11.824219 20.320312 C 11.738281 20.34375 11.707031 20.390625 11.691406 20.453125 C 11.648438 20.625 11.644531 20.800781 11.65625 20.976562 C 11.664062 21.140625 11.683594 21.304688 11.699219 21.464844 C 11.703125 21.5 11.710938 21.523438 11.734375 21.550781 C 11.945312 21.773438 12.132812 22.011719 12.308594 22.261719 C 12.464844 22.484375 12.679688 22.578125 12.945312 22.597656 C 13.15625 22.613281 13.363281 22.644531 13.570312 22.648438 C 13.609375 22.648438 13.648438 22.648438 13.6875 22.648438 C 13.722656 22.648438 13.746094 22.628906 13.746094 22.597656 C 13.746094 22.566406 13.710938 22.570312 13.6875 22.566406 C 13.378906 22.507812 13.070312 22.449219 12.757812 22.390625 C 12.714844 22.378906 12.667969 22.371094 12.625 22.359375 C 12.492188 22.332031 12.382812 22.261719 12.300781 22.160156 C 12.15625 21.984375 12.015625 21.808594 11.882812 21.625 C 11.8125 21.535156 11.78125 21.433594 11.785156 21.320312 C 11.792969 21.078125 11.796875 20.839844 11.796875 20.597656 C 11.800781 20.511719 11.816406 20.421875 11.824219 20.320312 Z M 11.824219 20.320312 " fill-opacity="1" fill-rule="nonzero"/></g><g clip-path="url(#2f57fb878a)"><path fill="#42240c" d="M 18.871094 14.363281 C 18.710938 14.148438 18.488281 14.011719 18.214844 13.960938 C 18.074219 13.9375 17.929688 13.9375 17.785156 13.945312 C 17.6875 13.953125 17.59375 13.96875 17.5 13.988281 C 17.511719 14.015625 17.519531 14.042969 17.527344 14.074219 C 17.746094 14.027344 17.96875 14.007812 18.191406 14.050781 C 18.464844 14.101562 18.695312 14.234375 18.828125 14.476562 C 18.992188 14.765625 18.992188 15.078125 18.847656 15.378906 C 18.71875 15.65625 18.476562 15.828125 18.203125 15.964844 C 18.167969 15.980469 18.148438 15.972656 18.128906 15.941406 C 18.101562 15.898438 18.074219 15.855469 18.042969 15.8125 C 18.019531 15.78125 18.019531 15.761719 18.054688 15.742188 C 18.097656 15.71875 18.140625 15.691406 18.183594 15.664062 C 18.414062 15.507812 18.5625 15.300781 18.617188 15.035156 C 18.671875 14.765625 18.550781 14.515625 18.304688 14.378906 C 18.167969 14.300781 18.027344 14.273438 17.871094 14.28125 C 17.769531 14.289062 17.675781 14.308594 17.578125 14.335938 C 17.585938 14.363281 17.589844 14.394531 17.59375 14.425781 C 17.625 14.414062 17.652344 14.40625 17.683594 14.398438 C 17.773438 14.378906 17.863281 14.367188 17.953125 14.371094 C 18.359375 14.390625 18.628906 14.707031 18.507812 15.097656 C 18.441406 15.296875 18.324219 15.453125 18.148438 15.574219 C 18.117188 15.597656 18.085938 15.621094 18.050781 15.640625 C 17.957031 15.699219 17.953125 15.695312 17.875 15.621094 C 17.800781 15.546875 17.71875 15.480469 17.605469 15.46875 C 17.59375 15.46875 17.585938 15.464844 17.578125 15.460938 C 17.5625 15.457031 17.53125 15.457031 17.476562 15.5 C 17.472656 15.507812 17.46875 15.511719 17.464844 15.519531 C 17.441406 15.542969 17.414062 15.523438 17.390625 15.515625 C 17.273438 15.480469 17.15625 15.464844 17.035156 15.476562 C 17.011719 15.480469 16.996094 15.480469 16.984375 15.484375 C 16.984375 15.484375 16.953125 15.472656 16.800781 15.546875 C 16.792969 15.546875 16.789062 15.550781 16.785156 15.550781 C 16.699219 15.605469 16.628906 15.671875 16.617188 15.777344 C 16.613281 15.832031 16.585938 15.859375 16.539062 15.890625 C 16.359375 16.003906 16.335938 16.203125 16.484375 16.351562 C 16.496094 16.363281 16.507812 16.375 16.523438 16.386719 C 16.554688 16.40625 16.550781 16.425781 16.535156 16.457031 C 16.457031 16.59375 16.496094 16.734375 16.640625 16.8125 C 16.691406 16.839844 16.710938 16.855469 16.699219 16.921875 C 16.675781 17.050781 16.753906 17.144531 16.890625 17.164062 C 16.90625 17.167969 16.925781 17.164062 16.941406 17.167969 C 17.058594 17.167969 17.179688 17.128906 17.179688 17.128906 C 17.195312 17.121094 17.207031 17.117188 17.226562 17.109375 C 17.5 17.015625 17.738281 16.875 17.863281 16.601562 C 17.867188 16.601562 17.871094 16.605469 17.875 16.605469 C 17.875 16.605469 17.878906 16.605469 17.882812 16.605469 C 17.890625 16.609375 17.902344 16.613281 17.910156 16.617188 C 17.914062 16.621094 17.921875 16.621094 17.925781 16.625 C 17.949219 16.632812 17.972656 16.636719 17.992188 16.640625 C 18.050781 16.625 18.121094 16.601562 18.140625 16.59375 C 18.171875 16.566406 18.191406 16.527344 18.203125 16.488281 C 18.234375 16.386719 18.234375 16.285156 18.210938 16.183594 C 18.1875 16.070312 18.1875 16.070312 18.296875 16.015625 C 18.480469 15.921875 18.640625 15.796875 18.78125 15.648438 C 19.109375 15.296875 19.113281 14.691406 18.871094 14.363281 Z M 18.871094 14.363281 " fill-opacity="1" fill-rule="nonzero"/></g><path fill="#42240c" d="M 16.898438 17.074219 C 16.96875 17.089844 17.035156 17.070312 17.097656 17.054688 C 17.324219 16.996094 17.527344 16.894531 17.683594 16.71875 C 17.710938 16.6875 17.738281 16.652344 17.753906 16.613281 C 17.777344 16.554688 17.78125 16.503906 17.730469 16.453125 C 17.695312 16.421875 17.667969 16.378906 17.640625 16.339844 C 17.621094 16.316406 17.609375 16.296875 17.605469 16.269531 C 17.601562 16.25 17.597656 16.230469 17.617188 16.21875 C 17.644531 16.203125 17.664062 16.214844 17.679688 16.234375 C 17.722656 16.289062 17.761719 16.34375 17.804688 16.398438 C 17.839844 16.445312 17.878906 16.488281 17.929688 16.523438 C 18 16.574219 18.082031 16.550781 18.113281 16.464844 C 18.136719 16.390625 18.140625 16.316406 18.128906 16.238281 C 18.097656 16.054688 18.015625 15.894531 17.882812 15.757812 C 17.824219 15.699219 17.773438 15.636719 17.699219 15.597656 C 17.578125 15.527344 17.488281 15.566406 17.472656 15.703125 C 17.464844 15.773438 17.472656 15.84375 17.503906 15.910156 C 17.507812 15.921875 17.515625 15.933594 17.519531 15.945312 C 17.527344 15.96875 17.527344 15.992188 17.5 16.007812 C 17.476562 16.019531 17.457031 16.007812 17.441406 15.988281 C 17.414062 15.949219 17.398438 15.90625 17.390625 15.863281 C 17.378906 15.796875 17.375 15.726562 17.386719 15.660156 C 17.390625 15.632812 17.394531 15.609375 17.359375 15.601562 C 17.175781 15.554688 16.996094 15.535156 16.824219 15.636719 C 16.746094 15.679688 16.722656 15.722656 16.714844 15.804688 C 16.757812 15.808594 16.792969 15.789062 16.832031 15.785156 C 16.867188 15.78125 16.898438 15.773438 16.933594 15.769531 C 16.96875 15.769531 17.007812 15.773438 17.011719 15.8125 C 17.011719 15.851562 16.976562 15.855469 16.945312 15.859375 C 16.832031 15.871094 16.722656 15.898438 16.617188 15.949219 C 16.535156 15.984375 16.480469 16.046875 16.480469 16.132812 C 16.484375 16.230469 16.539062 16.296875 16.625 16.34375 C 16.644531 16.355469 16.667969 16.355469 16.691406 16.351562 C 16.714844 16.347656 16.738281 16.339844 16.757812 16.335938 C 16.789062 16.335938 16.824219 16.335938 16.828125 16.371094 C 16.832031 16.40625 16.808594 16.414062 16.78125 16.421875 C 16.746094 16.429688 16.714844 16.441406 16.683594 16.453125 C 16.589844 16.492188 16.5625 16.570312 16.609375 16.660156 C 16.65625 16.75 16.757812 16.78125 16.851562 16.730469 C 16.875 16.714844 16.902344 16.699219 16.933594 16.695312 C 16.953125 16.695312 16.972656 16.703125 16.980469 16.71875 C 16.992188 16.742188 16.980469 16.757812 16.960938 16.769531 C 16.933594 16.785156 16.902344 16.800781 16.875 16.816406 C 16.835938 16.839844 16.804688 16.867188 16.792969 16.914062 C 16.769531 16.996094 16.8125 17.058594 16.902344 17.074219 Z M 16.898438 17.074219 " fill-opacity="1" fill-rule="nonzero"/><path fill="#ffffff" d="M 17.917969 16.65625 C 17.921875 16.65625 17.933594 16.65625 17.941406 16.652344 C 17.921875 16.652344 17.90625 16.65625 17.917969 16.65625 Z M 17.917969 16.65625 " fill-opacity="1" fill-rule="nonzero"/><path fill="#ffffff" d="M 16.714844 15.804688 C 16.757812 15.808594 16.792969 15.789062 16.832031 15.785156 C 16.867188 15.78125 16.898438 15.773438 16.933594 15.769531 C 16.96875 15.769531 17.007812 15.773438 17.011719 15.8125 C 17.011719 15.851562 16.976562 15.855469 16.945312 15.859375 C 16.832031 15.871094 16.722656 15.902344 16.617188 15.949219 C 16.535156 15.984375 16.480469 16.046875 16.480469 16.132812 C 16.480469 16.230469 16.539062 16.296875 16.625 16.34375 C 16.644531 16.355469 16.667969 16.355469 16.691406 16.351562 C 16.714844 16.347656 16.734375 16.339844 16.757812 16.335938 C 16.789062 16.335938 16.824219 16.335938 16.828125 16.371094 C 16.832031 16.40625 16.808594 16.414062 16.777344 16.421875 C 16.746094 16.429688 16.714844 16.4375 16.683594 16.453125 C 16.589844 16.492188 16.5625 16.570312 16.609375 16.660156 C 16.65625 16.75 16.757812 16.78125 16.847656 16.730469 C 16.875 16.714844 16.898438 16.695312 16.929688 16.695312 C 16.953125 16.695312 16.972656 16.703125 16.980469 16.71875 C 16.992188 16.742188 16.980469 16.757812 16.960938 16.769531 C 16.933594 16.785156 16.902344 16.800781 16.875 16.816406 C 16.835938 16.839844 16.804688 16.867188 16.792969 16.914062 C 16.769531 16.996094 16.8125 17.058594 16.898438 17.074219 C 16.96875 17.089844 17.035156 17.070312 17.097656 17.054688 C 17.324219 16.996094 17.527344 16.894531 17.683594 16.71875 C 17.710938 16.6875 17.738281 16.652344 17.753906 16.613281 C 17.777344 16.554688 17.78125 16.503906 17.730469 16.453125 C 17.695312 16.421875 17.667969 16.378906 17.636719 16.339844 C 17.621094 16.316406 17.609375 16.296875 17.605469 16.269531 C 17.601562 16.25 17.597656 16.230469 17.617188 16.21875 C 17.644531 16.203125 17.664062 16.214844 17.679688 16.234375 C 17.71875 16.289062 17.761719 16.34375 17.804688 16.398438 C 17.839844 16.445312 17.878906 16.488281 17.929688 16.523438 C 18 16.574219 18.082031 16.546875 18.113281 16.464844 C 18.136719 16.390625 18.140625 16.316406 18.128906 16.238281 C 18.097656 16.050781 18.015625 15.894531 17.882812 15.757812 C 17.824219 15.699219 17.773438 15.636719 17.699219 15.59375 C 17.578125 15.527344 17.488281 15.566406 17.472656 15.703125 C 17.464844 15.773438 17.472656 15.84375 17.5 15.910156 C 17.507812 15.921875 17.511719 15.933594 17.519531 15.945312 C 17.527344 15.96875 17.523438 15.992188 17.5 16.003906 C 17.476562 16.019531 17.457031 16.003906 17.441406 15.988281 C 17.414062 15.949219 17.398438 15.90625 17.390625 15.863281 C 17.378906 15.796875 17.371094 15.726562 17.386719 15.660156 C 17.390625 15.632812 17.394531 15.609375 17.355469 15.597656 C 17.175781 15.554688 16.992188 15.535156 16.820312 15.632812 C 16.746094 15.679688 16.71875 15.722656 16.714844 15.804688 Z M 16.714844 15.804688 " fill-opacity="1" fill-rule="nonzero"/><path fill="#7a4935" d="M 18.828125 14.476562 C 18.695312 14.234375 18.464844 14.101562 18.191406 14.050781 C 17.96875 14.007812 17.746094 14.027344 17.527344 14.074219 C 17.554688 14.160156 17.566406 14.246094 17.578125 14.335938 C 17.675781 14.308594 17.769531 14.289062 17.871094 14.28125 C 18.027344 14.273438 18.167969 14.300781 18.304688 14.378906 C 18.550781 14.515625 18.671875 14.765625 18.617188 15.035156 C 18.5625 15.300781 18.414062 15.507812 18.183594 15.664062 C 18.140625 15.691406 18.097656 15.71875 18.054688 15.742188 C 18.019531 15.761719 18.019531 15.78125 18.042969 15.8125 C 18.074219 15.855469 18.101562 15.898438 18.128906 15.941406 C 18.148438 15.972656 18.167969 15.980469 18.203125 15.964844 C 18.476562 15.828125 18.71875 15.65625 18.847656 15.382812 C 18.992188 15.078125 18.992188 14.769531 18.828125 14.476562 Z M 18.828125 14.476562 " fill-opacity="1" fill-rule="nonzero"/><g clip-path="url(#c121c0b569)"><path fill="#42240c" d="M 11.136719 17.292969 C 11.089844 17.25 11.09375 17.21875 11.117188 17.167969 C 11.179688 17.023438 11.125 16.890625 10.976562 16.824219 C 10.941406 16.8125 10.929688 16.796875 10.9375 16.761719 C 10.945312 16.746094 10.949219 16.730469 10.949219 16.714844 C 10.96875 16.507812 10.828125 16.363281 10.613281 16.382812 C 10.554688 16.386719 10.515625 16.375 10.480469 16.335938 C 10.402344 16.261719 10.304688 16.25 10.203125 16.257812 C 10.199219 16.257812 10.195312 16.261719 10.1875 16.261719 C 10.019531 16.296875 10.003906 16.324219 10.003906 16.324219 L 10 16.320312 C 9.992188 16.328125 9.976562 16.335938 9.960938 16.34375 C 9.855469 16.410156 9.773438 16.492188 9.699219 16.585938 C 9.6875 16.605469 9.679688 16.636719 9.644531 16.632812 C 9.636719 16.632812 9.628906 16.628906 9.625 16.625 C 9.554688 16.625 9.527344 16.640625 9.519531 16.652344 C 9.515625 16.660156 9.511719 16.667969 9.503906 16.675781 C 9.421875 16.753906 9.398438 16.851562 9.382812 16.957031 C 9.371094 17.0625 9.367188 17.0625 9.257812 17.078125 C 9.21875 17.082031 9.175781 17.078125 9.136719 17.082031 C 8.921875 17.089844 8.730469 17.03125 8.554688 16.914062 C 8.210938 16.675781 8.222656 16.265625 8.53125 16.011719 C 8.589844 15.960938 8.660156 15.921875 8.734375 15.890625 C 8.722656 15.863281 8.710938 15.835938 8.699219 15.804688 C 8.644531 15.832031 8.589844 15.859375 8.539062 15.894531 C 8.410156 15.976562 8.316406 16.085938 8.257812 16.226562 C 8.148438 16.480469 8.210938 16.746094 8.425781 16.929688 C 8.636719 17.109375 8.886719 17.183594 9.167969 17.171875 C 9.21875 17.167969 9.265625 17.164062 9.316406 17.15625 C 9.355469 17.152344 9.371094 17.167969 9.371094 17.203125 C 9.375 17.257812 9.378906 17.308594 9.386719 17.359375 C 9.390625 17.394531 9.378906 17.414062 9.34375 17.421875 C 9.039062 17.472656 8.738281 17.480469 8.460938 17.339844 C 8.15625 17.183594 7.957031 16.941406 7.902344 16.613281 C 7.855469 16.34375 7.953125 16.101562 8.140625 15.898438 C 8.277344 15.75 8.445312 15.640625 8.625 15.550781 C 8.617188 15.523438 8.605469 15.496094 8.59375 15.464844 C 8.527344 15.5 8.457031 15.535156 8.394531 15.578125 C 8.273438 15.65625 8.15625 15.738281 8.0625 15.84375 C 7.878906 16.046875 7.789062 16.285156 7.800781 16.546875 C 7.816406 16.953125 8.199219 17.425781 8.683594 17.511719 C 8.890625 17.546875 9.09375 17.550781 9.300781 17.515625 C 9.421875 17.496094 9.421875 17.496094 9.472656 17.597656 C 9.519531 17.695312 9.582031 17.773438 9.671875 17.835938 C 9.710938 17.859375 9.746094 17.878906 9.789062 17.882812 C 9.808594 17.875 9.882812 17.851562 9.9375 17.832031 C 9.953125 17.816406 9.96875 17.796875 9.980469 17.777344 C 9.980469 17.773438 9.984375 17.769531 9.988281 17.765625 C 9.992188 17.757812 9.996094 17.746094 10.003906 17.738281 C 10.003906 17.738281 10.007812 17.734375 10.007812 17.734375 C 10.011719 17.730469 10.011719 17.726562 10.011719 17.726562 C 10.289062 17.867188 10.566406 17.839844 10.84375 17.75 C 10.859375 17.746094 10.875 17.742188 10.890625 17.738281 C 10.890625 17.738281 11.011719 17.695312 11.105469 17.628906 C 11.113281 17.617188 11.128906 17.609375 11.140625 17.597656 C 11.238281 17.496094 11.242188 17.378906 11.136719 17.292969 Z M 11.136719 17.292969 " fill-opacity="1" fill-rule="nonzero"/></g><path fill="#42240c" d="M 11.078125 17.53125 C 11.03125 17.582031 10.96875 17.605469 10.90625 17.632812 C 10.691406 17.71875 10.464844 17.761719 10.230469 17.710938 C 10.1875 17.703125 10.144531 17.691406 10.109375 17.671875 C 10.054688 17.636719 10.015625 17.597656 10.027344 17.527344 C 10.035156 17.480469 10.027344 17.433594 10.027344 17.382812 C 10.027344 17.359375 10.023438 17.332031 10.007812 17.308594 C 10 17.292969 9.988281 17.273438 9.964844 17.277344 C 9.9375 17.28125 9.929688 17.300781 9.929688 17.324219 C 9.929688 17.394531 9.929688 17.460938 9.933594 17.527344 C 9.9375 17.585938 9.929688 17.644531 9.914062 17.703125 C 9.890625 17.785156 9.808594 17.8125 9.734375 17.765625 C 9.664062 17.722656 9.613281 17.664062 9.574219 17.59375 C 9.480469 17.429688 9.445312 17.253906 9.464844 17.070312 C 9.472656 16.988281 9.476562 16.90625 9.507812 16.832031 C 9.558594 16.703125 9.65625 16.683594 9.753906 16.785156 C 9.804688 16.835938 9.84375 16.894531 9.863281 16.964844 C 9.867188 16.976562 9.871094 16.992188 9.875 17.003906 C 9.882812 17.027344 9.894531 17.042969 9.925781 17.039062 C 9.953125 17.035156 9.960938 17.015625 9.960938 16.988281 C 9.957031 16.945312 9.945312 16.902344 9.921875 16.859375 C 9.890625 16.800781 9.847656 16.742188 9.796875 16.699219 C 9.773438 16.679688 9.757812 16.664062 9.78125 16.632812 C 9.898438 16.492188 10.027344 16.367188 10.226562 16.347656 C 10.316406 16.335938 10.363281 16.355469 10.417969 16.417969 C 10.386719 16.445312 10.347656 16.453125 10.3125 16.472656 C 10.285156 16.488281 10.253906 16.5 10.226562 16.519531 C 10.195312 16.535156 10.167969 16.5625 10.191406 16.597656 C 10.210938 16.628906 10.246094 16.609375 10.273438 16.59375 C 10.371094 16.539062 10.472656 16.496094 10.585938 16.472656 C 10.675781 16.453125 10.757812 16.46875 10.8125 16.539062 C 10.871094 16.617188 10.867188 16.703125 10.832031 16.789062 C 10.824219 16.8125 10.808594 16.824219 10.785156 16.835938 C 10.765625 16.84375 10.742188 16.851562 10.722656 16.863281 C 10.695312 16.878906 10.667969 16.902344 10.6875 16.933594 C 10.707031 16.960938 10.734375 16.953125 10.761719 16.945312 C 10.792969 16.933594 10.824219 16.917969 10.855469 16.910156 C 10.953125 16.886719 11.027344 16.933594 11.046875 17.03125 C 11.066406 17.132812 11.003906 17.214844 10.898438 17.226562 C 10.867188 17.230469 10.839844 17.234375 10.8125 17.25 C 10.792969 17.261719 10.785156 17.277344 10.789062 17.300781 C 10.792969 17.320312 10.8125 17.328125 10.835938 17.328125 C 10.871094 17.324219 10.902344 17.316406 10.933594 17.3125 C 10.980469 17.308594 11.023438 17.3125 11.058594 17.339844 C 11.128906 17.390625 11.136719 17.46875 11.078125 17.53125 Z M 11.078125 17.53125 " fill-opacity="1" fill-rule="nonzero"/><path fill="#ffffff" d="M 10.007812 17.800781 C 10.003906 17.804688 9.996094 17.808594 9.984375 17.8125 C 10.003906 17.800781 10.015625 17.792969 10.007812 17.800781 Z M 10.007812 17.800781 " fill-opacity="1" fill-rule="nonzero"/><path fill="#ffffff" d="M 10.417969 16.417969 C 10.386719 16.445312 10.347656 16.453125 10.3125 16.472656 C 10.28125 16.488281 10.253906 16.5 10.226562 16.519531 C 10.195312 16.535156 10.167969 16.5625 10.191406 16.597656 C 10.210938 16.628906 10.242188 16.609375 10.269531 16.59375 C 10.367188 16.539062 10.472656 16.496094 10.585938 16.472656 C 10.675781 16.453125 10.757812 16.46875 10.8125 16.539062 C 10.871094 16.617188 10.867188 16.703125 10.832031 16.789062 C 10.824219 16.8125 10.808594 16.824219 10.785156 16.835938 C 10.761719 16.84375 10.742188 16.851562 10.722656 16.863281 C 10.695312 16.878906 10.667969 16.902344 10.6875 16.933594 C 10.703125 16.960938 10.734375 16.953125 10.757812 16.945312 C 10.789062 16.933594 10.820312 16.917969 10.851562 16.910156 C 10.953125 16.886719 11.027344 16.933594 11.042969 17.03125 C 11.0625 17.132812 11.003906 17.214844 10.898438 17.226562 C 10.867188 17.230469 10.835938 17.234375 10.8125 17.25 C 10.792969 17.261719 10.78125 17.277344 10.789062 17.300781 C 10.792969 17.320312 10.8125 17.328125 10.835938 17.328125 C 10.867188 17.324219 10.902344 17.316406 10.933594 17.3125 C 10.976562 17.308594 11.019531 17.3125 11.058594 17.339844 C 11.128906 17.390625 11.136719 17.46875 11.078125 17.53125 C 11.03125 17.582031 10.96875 17.605469 10.90625 17.632812 C 10.691406 17.71875 10.464844 17.761719 10.230469 17.710938 C 10.1875 17.703125 10.144531 17.691406 10.109375 17.671875 C 10.054688 17.640625 10.015625 17.597656 10.027344 17.53125 C 10.03125 17.480469 10.027344 17.433594 10.027344 17.382812 C 10.023438 17.359375 10.023438 17.332031 10.007812 17.308594 C 10 17.292969 9.988281 17.273438 9.964844 17.277344 C 9.933594 17.28125 9.929688 17.300781 9.929688 17.324219 C 9.929688 17.394531 9.929688 17.460938 9.933594 17.527344 C 9.933594 17.585938 9.929688 17.644531 9.914062 17.703125 C 9.890625 17.785156 9.808594 17.8125 9.730469 17.765625 C 9.664062 17.722656 9.613281 17.660156 9.574219 17.59375 C 9.480469 17.429688 9.445312 17.253906 9.464844 17.070312 C 9.472656 16.988281 9.476562 16.90625 9.507812 16.832031 C 9.558594 16.703125 9.65625 16.683594 9.753906 16.785156 C 9.804688 16.835938 9.84375 16.894531 9.863281 16.964844 C 9.867188 16.976562 9.867188 16.992188 9.871094 17.003906 C 9.878906 17.027344 9.894531 17.042969 9.921875 17.039062 C 9.953125 17.035156 9.957031 17.011719 9.957031 16.988281 C 9.957031 16.945312 9.945312 16.902344 9.921875 16.859375 C 9.886719 16.800781 9.847656 16.742188 9.796875 16.699219 C 9.773438 16.679688 9.757812 16.664062 9.78125 16.632812 C 9.894531 16.492188 10.027344 16.367188 10.226562 16.347656 C 10.3125 16.335938 10.359375 16.355469 10.417969 16.417969 Z M 10.417969 16.417969 " fill-opacity="1" fill-rule="nonzero"/><g clip-path="url(#0f949ebd74)"><path fill="#7a4935" d="M 9.316406 17.15625 C 9.269531 17.164062 9.21875 17.167969 9.167969 17.171875 C 8.886719 17.183594 8.636719 17.109375 8.425781 16.929688 C 8.210938 16.746094 8.148438 16.480469 8.257812 16.222656 C 8.316406 16.085938 8.410156 15.976562 8.539062 15.894531 C 8.589844 15.859375 8.644531 15.832031 8.699219 15.804688 C 8.699219 15.796875 8.695312 15.789062 8.691406 15.78125 C 8.664062 15.707031 8.648438 15.628906 8.625 15.550781 C 8.445312 15.640625 8.277344 15.75 8.140625 15.898438 C 7.953125 16.101562 7.855469 16.34375 7.902344 16.609375 C 7.957031 16.9375 8.160156 17.183594 8.460938 17.339844 C 8.738281 17.480469 9.042969 17.472656 9.34375 17.417969 C 9.378906 17.414062 9.390625 17.394531 9.386719 17.359375 C 9.378906 17.308594 9.375 17.253906 9.375 17.203125 C 9.371094 17.167969 9.359375 17.152344 9.316406 17.15625 Z M 9.316406 17.15625 " fill-opacity="1" fill-rule="nonzero"/></g></svg>