<svg xmlns="http://www.w3.org/2000/svg" xmlns:xlink="http://www.w3.org/1999/xlink" width="40" zoomAndPan="magnify" viewBox="0 0 30 30.000001" height="40" preserveAspectRatio="xMidYMid meet" version="1.0"><defs><clipPath id="91eb52f8f6"><path d="M 1 3 L 29.515625 3 L 29.515625 27 L 1 27 Z M 1 3 " clip-rule="nonzero"/></clipPath><clipPath id="f5e98d91fa"><path d="M 11.703125 31.683594 L -3.125 13.808594 L 14.75 -1.023438 L 29.578125 16.851562 Z M 11.703125 31.683594 " clip-rule="nonzero"/></clipPath><clipPath id="8c97eb294f"><path d="M 11.703125 31.683594 L -3.125 13.808594 L 14.75 -1.023438 L 29.578125 16.851562 Z M 11.703125 31.683594 " clip-rule="nonzero"/></clipPath><clipPath id="8f42fa512c"><path d="M 2 4 L 29 4 L 29 27 L 2 27 Z M 2 4 " clip-rule="nonzero"/></clipPath><clipPath id="df10906eca"><path d="M 11.703125 31.683594 L -3.125 13.808594 L 14.75 -1.023438 L 29.578125 16.851562 Z M 11.703125 31.683594 " clip-rule="nonzero"/></clipPath><clipPath id="0e74be80fc"><path d="M 11.703125 31.683594 L -3.125 13.808594 L 14.75 -1.023438 L 29.578125 16.851562 Z M 11.703125 31.683594 " clip-rule="nonzero"/></clipPath><clipPath id="2a42507824"><path d="M 2 4 L 29 4 L 29 27 L 2 27 Z M 2 4 " clip-rule="nonzero"/></clipPath><clipPath id="25e87dd6e7"><path d="M 11.796875 30.660156 L -2.105469 13.902344 L 14.65625 0 L 28.558594 16.757812 Z M 11.796875 30.660156 " clip-rule="nonzero"/></clipPath><clipPath id="ccf77b1686"><path d="M 11.796875 30.660156 L -2.105469 13.902344 L 14.65625 0 L 28.558594 16.757812 Z M 11.796875 30.660156 " clip-rule="nonzero"/></clipPath><clipPath id="0f577f579a"><path d="M 2 4 L 28 4 L 28 26 L 2 26 Z M 2 4 " clip-rule="nonzero"/></clipPath><clipPath id="b7db4295c1"><path d="M 11.796875 30.660156 L -2.105469 13.902344 L 14.65625 0 L 28.558594 16.757812 Z M 11.796875 30.660156 " clip-rule="nonzero"/></clipPath><clipPath id="7b1189f45e"><path d="M 11.796875 30.660156 L -2.105469 13.902344 L 14.65625 0 L 28.558594 16.757812 Z M 11.796875 30.660156 " clip-rule="nonzero"/></clipPath><clipPath id="6da1b966f4"><path d="M 7.726562 7.796875 L 18.613281 7.796875 L 18.613281 21 L 7.726562 21 Z M 7.726562 7.796875 " clip-rule="nonzero"/></clipPath><clipPath id="2976b5fa38"><path d="M 7.726562 7.796875 L 18.613281 7.796875 L 18.613281 21.589844 L 7.726562 21.589844 Z M 7.726562 7.796875 " clip-rule="nonzero"/></clipPath></defs><g clip-path="url(#91eb52f8f6)"><g clip-path="url(#f5e98d91fa)"><g clip-path="url(#8c97eb294f)"><path fill="#000000" d="M 4.289062 22.746094 C 0.195312 17.808594 0.875 10.488281 5.8125 6.394531 C 10.75 2.296875 18.070312 2.980469 22.164062 7.914062 L 29.578125 16.851562 L 20.640625 24.269531 C 15.707031 28.363281 8.382812 27.679688 4.289062 22.746094 Z M 4.289062 22.746094 " fill-opacity="1" fill-rule="evenodd"/></g></g></g><g clip-path="url(#8f42fa512c)"><g clip-path="url(#df10906eca)"><g clip-path="url(#0e74be80fc)"><path fill="#000000" d="M 21.714844 8.289062 L 28.753906 16.777344 L 20.269531 23.816406 C 18 25.699219 15.136719 26.582031 12.203125 26.308594 C 9.269531 26.039062 6.621094 24.636719 4.738281 22.371094 C 2.859375 20.105469 1.972656 17.242188 2.246094 14.308594 C 2.519531 11.375 3.917969 8.722656 6.1875 6.84375 C 8.453125 4.960938 11.316406 4.078125 14.25 4.351562 C 17.183594 4.625 19.832031 6.023438 21.714844 8.289062 Z M 28.601562 16.761719 L 21.628906 8.359375 C 17.785156 3.726562 10.890625 3.082031 6.253906 6.925781 C 1.621094 10.769531 0.980469 17.667969 4.824219 22.300781 C 8.667969 26.933594 15.5625 27.578125 20.199219 23.734375 Z M 28.601562 16.761719 " fill-opacity="1" fill-rule="nonzero"/></g></g></g><g clip-path="url(#2a42507824)"><g clip-path="url(#25e87dd6e7)"><g clip-path="url(#ccf77b1686)"><path fill="#ff7b72" d="M 4.847656 22.28125 C 1.007812 17.652344 1.648438 10.789062 6.273438 6.953125 C 10.902344 3.113281 17.765625 3.75 21.605469 8.378906 L 28.558594 16.757812 L 20.179688 23.710938 C 15.550781 27.546875 8.6875 26.910156 4.847656 22.28125 Z M 4.847656 22.28125 " fill-opacity="1" fill-rule="evenodd"/></g></g></g><g clip-path="url(#0f577f579a)"><g clip-path="url(#b7db4295c1)"><g clip-path="url(#7b1189f45e)"><path fill="#ff7b72" d="M 21.183594 8.730469 L 27.785156 16.6875 L 19.828125 23.289062 C 17.703125 25.050781 15.015625 25.878906 12.269531 25.625 C 9.519531 25.367188 7.03125 24.054688 5.269531 21.929688 C 3.507812 19.804688 2.675781 17.121094 2.933594 14.371094 C 3.1875 11.621094 4.5 9.136719 6.625 7.375 C 8.75 5.609375 11.4375 4.78125 14.183594 5.035156 C 16.933594 5.292969 19.421875 6.605469 21.183594 8.730469 Z M 27.640625 16.671875 L 21.105469 8.796875 C 17.5 4.453125 11.035156 3.847656 6.691406 7.453125 C 2.347656 11.054688 1.746094 17.523438 5.347656 21.867188 C 8.953125 26.210938 15.417969 26.8125 19.761719 23.207031 Z M 27.640625 16.671875 " fill-opacity="1" fill-rule="nonzero"/></g></g></g><g clip-path="url(#6da1b966f4)"><path fill="#ff685e" d="M 13.085938 20.996094 C 13.085938 20.996094 9.09375 21.210938 7.953125 17.148438 L 8.839844 17.800781 C 8.839844 17.800781 7.730469 15.28125 10.191406 12.277344 L 10.519531 13.769531 C 10.519531 13.769531 10.246094 9.09375 15.441406 7.980469 C 15.441406 7.980469 14.226562 10.285156 16.363281 14.476562 C 16.363281 14.476562 16.390625 13.472656 17.335938 13.171875 C 17.335938 13.171875 17.164062 13.867188 17.746094 14.847656 C 18.539062 16.191406 18.476562 17.882812 17.511719 19.105469 C 16.660156 20.179688 15.226562 21.046875 13.085938 20.996094 Z M 13.085938 20.996094 " fill-opacity="1" fill-rule="nonzero"/></g><g clip-path="url(#2976b5fa38)"><path fill="#000000" d="M 12.976562 21.160156 C 12.671875 21.160156 11.832031 21.121094 10.890625 20.746094 C 9.8125 20.316406 8.40625 19.355469 7.796875 17.195312 C 7.777344 17.128906 7.800781 17.058594 7.859375 17.019531 C 7.917969 16.976562 7.992188 16.980469 8.046875 17.019531 L 8.539062 17.378906 C 8.332031 16.488281 8.179688 14.480469 10.066406 12.175781 C 10.105469 12.128906 10.167969 12.105469 10.230469 12.121094 C 10.289062 12.136719 10.335938 12.183594 10.347656 12.242188 L 10.445312 12.675781 C 10.519531 12.257812 10.648438 11.753906 10.882812 11.226562 C 11.429688 10 12.65625 8.414062 15.410156 7.820312 C 15.46875 7.808594 15.535156 7.832031 15.570312 7.882812 C 15.609375 7.933594 15.617188 8 15.585938 8.054688 C 15.574219 8.078125 14.515625 10.191406 16.300781 13.984375 C 16.4375 13.609375 16.730469 13.195312 17.289062 13.019531 C 17.34375 13 17.40625 13.015625 17.449219 13.054688 C 17.492188 13.09375 17.507812 13.15625 17.492188 13.210938 C 17.492188 13.21875 17.347656 13.859375 17.886719 14.765625 C 18.734375 16.199219 18.636719 17.941406 17.636719 19.203125 C 16.90625 20.125 15.527344 21.214844 13.089844 21.15625 C 13.074219 21.15625 13.035156 21.160156 12.976562 21.160156 Z M 13.089844 20.832031 C 13.089844 20.832031 13.089844 20.832031 13.09375 20.832031 C 15.398438 20.886719 16.699219 19.867188 17.382812 19.003906 C 18.300781 17.847656 18.386719 16.25 17.605469 14.929688 C 17.21875 14.273438 17.148438 13.738281 17.152344 13.425781 C 16.554688 13.753906 16.527344 14.445312 16.523438 14.480469 C 16.523438 14.554688 16.46875 14.617188 16.398438 14.632812 C 16.324219 14.648438 16.253906 14.613281 16.21875 14.546875 C 14.484375 11.144531 14.917969 8.972656 15.175781 8.207031 C 13.238281 8.695312 11.894531 9.753906 11.179688 11.359375 C 10.621094 12.613281 10.683594 13.746094 10.683594 13.757812 C 10.6875 13.84375 10.625 13.917969 10.542969 13.929688 C 10.460938 13.941406 10.382812 13.886719 10.363281 13.804688 L 10.109375 12.648438 C 9.476562 13.484375 8.804688 14.707031 8.753906 16.152344 C 8.722656 17.113281 8.984375 17.730469 8.988281 17.734375 C 9.015625 17.800781 8.996094 17.882812 8.941406 17.925781 C 8.882812 17.972656 8.804688 17.972656 8.746094 17.929688 L 8.257812 17.574219 C 8.761719 18.949219 9.683594 19.914062 10.996094 20.441406 C 12.09375 20.878906 13.070312 20.832031 13.078125 20.832031 C 13.082031 20.832031 13.085938 20.832031 13.089844 20.832031 Z M 13.089844 20.832031 " fill-opacity="1" fill-rule="nonzero"/></g><path fill="#ffdb00" d="M 12.25 20.230469 C 11.042969 19.789062 9.566406 18.652344 10.324219 15.527344 C 10.347656 15.429688 10.484375 15.40625 10.539062 15.496094 C 10.765625 15.871094 11.242188 16.566406 11.796875 16.796875 C 12.023438 16.890625 12.253906 16.664062 12.160156 16.4375 C 11.730469 15.386719 10.878906 12.511719 12.988281 9.863281 C 13.0625 9.769531 13.207031 9.832031 13.195312 9.945312 C 13.078125 10.933594 12.992188 13.484375 14.976562 14.476562 C 17.1875 15.582031 17.160156 19.472656 14.402344 20.316406 C 13.699219 20.53125 12.941406 20.484375 12.25 20.230469 Z M 12.25 20.230469 " fill-opacity="1" fill-rule="nonzero"/><path fill="#ffffff" d="M 14.207031 19.632812 C 13.820312 20.160156 13.019531 20.199219 12.617188 19.679688 C 12.355469 19.34375 12.316406 18.816406 13.003906 18.023438 C 14.152344 16.695312 13.324219 15.15625 12.792969 14.417969 C 12.753906 14.363281 12.824219 14.300781 12.875 14.347656 C 13.8125 15.195312 15.820312 17.414062 14.207031 19.632812 Z M 14.207031 19.632812 " fill-opacity="1" fill-rule="nonzero"/></svg>